<?xml version="1.0" standalone="no"?>
<!DOCTYPE svg PUBLIC "-//W3C//DTD SVG 20010904//EN"
 "http://www.w3.org/TR/2001/REC-SVG-20010904/DTD/svg10.dtd">
<svg version="1.0" xmlns="http://www.w3.org/2000/svg"
 width="1080.000000pt" height="1080.000000pt" viewBox="0 0 1080.000000 1080.000000"
 preserveAspectRatio="xMidYMid meet">

<g transform="translate(0.000000,1080.000000) scale(0.100000,-0.100000)"
fill="#000000" stroke="none">
<path d="M620 9970 c0 -89 0 -90 25 -90 25 0 25 1 25 90 0 89 0 90 -25 90 -25
0 -25 -1 -25 -90z"/>
<path d="M800 9995 c-14 -16 -6 -35 15 -35 10 0 14 9 13 25 -3 28 -10 31 -28
10z"/>
<path d="M867 9961 c4 -50 -9 -73 -29 -53 -7 7 -6 17 2 32 11 21 11 21 -19 5
-35 -18 -41 -50 -11 -60 10 -3 28 -1 39 4 14 8 22 8 26 0 4 -5 14 -9 23 -7 22
4 18 98 -6 116 -25 19 -28 15 -25 -37z"/>
<path d="M940 10005 c0 -12 55 -115 61 -115 4 0 10 9 14 19 9 29 -31 101 -55
101 -11 0 -20 -2 -20 -5z"/>
<path d="M1086 9991 c-26 -28 -18 -82 15 -100 29 -16 74 -9 83 14 4 12 2 13
-15 2 -30 -18 -63 24 -56 70 6 37 -2 42 -27 14z"/>
<path d="M1148 9985 c3 -16 11 -25 23 -25 21 0 25 20 7 38 -20 20 -36 14 -30
-13z"/>
<path d="M1220 9945 c0 -63 1 -66 22 -63 20 3 22 9 22 63 0 54 -2 60 -22 63
-21 3 -22 0 -22 -63z"/>
<path d="M1305 10000 c4 -6 1 -17 -5 -25 -10 -12 -9 -16 5 -21 9 -4 21 -2 27
4 14 14 0 52 -18 52 -8 0 -12 -5 -9 -10z"/>
<path d="M1367 10003 c-17 -16 -4 -42 33 -67 26 -17 37 -31 34 -41 -9 -22 10
-18 32 6 21 23 23 20 -51 72 -14 10 -23 22 -20 28 7 10 -18 13 -28 2z"/>
<path d="M1435 9988 c1 -12 7 -24 13 -26 18 -6 27 29 11 39 -21 13 -26 11 -24
-13z"/>
<path d="M8808 9999 c-21 -12 -25 -88 -6 -107 13 -13 66 -16 92 -6 25 10 22
100 -3 114 -25 13 -61 12 -83 -1z m90 -56 l-3 -48 -45 0 c-44 0 -45 1 -48 33
-5 53 2 62 53 62 l46 0 -3 -47z"/>
<path d="M8831 9967 c-15 -15 -14 -32 3 -46 20 -17 43 -4 48 27 3 22 0 27 -18
28 -12 1 -27 -3 -33 -9z m39 -20 c0 -19 -10 -27 -26 -20 -21 8 -17 33 6 33 11
0 20 -6 20 -13z"/>
<path d="M10024 9960 l10 -51 50 3 c48 3 51 5 57 35 3 18 4 35 1 38 -3 3 -29
5 -59 5 -29 0 -53 5 -53 10 0 6 -4 10 -8 10 -5 0 -4 -23 2 -50z m104 -7 c-3
-25 -8 -28 -44 -31 -37 -3 -42 -1 -46 22 -7 33 -3 36 49 36 42 0 44 -1 41 -27z"/>
<path d="M8160 9940 l0 -60 35 0 c28 0 35 4 35 19 0 11 -4 22 -9 25 -15 10 12
56 33 56 16 0 16 -2 5 -16 -10 -13 -10 -17 0 -24 9 -5 10 -10 2 -14 -16 -11
-13 -46 4 -46 12 0 15 13 15 60 l0 60 -60 0 -60 0 0 -60z"/>
<path d="M8494 9974 c-13 -19 -15 -32 -8 -51 13 -39 34 -41 34 -4 0 16 5 33
10 36 6 3 10 -3 10 -14 0 -12 5 -21 10 -21 6 0 10 12 10 26 0 20 -4 25 -22 22
-13 -2 -25 -13 -30 -28 -7 -25 -7 -25 -5 -1 4 53 72 53 72 0 0 -17 -6 -25 -22
-27 -25 -4 -32 -32 -8 -32 22 0 55 37 55 60 0 28 -35 60 -65 60 -15 0 -31 -10
-41 -26z"/>
<path d="M9158 9953 c-3 -45 -28 -76 -28 -35 0 11 6 22 13 25 6 2 9 7 6 11 -9
9 -37 -3 -43 -20 -8 -21 3 -42 25 -49 27 -9 49 12 49 46 0 19 5 29 15 29 20 0
19 10 -2 26 -28 21 -32 17 -35 -33z"/>
<path d="M9445 9980 c-15 -16 -17 -26 -9 -48 8 -22 16 -27 45 -27 20 0 44 -7
55 -15 18 -14 18 -14 2 6 -11 12 -15 28 -11 42 6 26 -21 62 -47 62 -9 0 -25
-9 -35 -20z m65 -5 c26 -32 -13 -81 -47 -59 -35 22 -23 74 17 74 10 0 23 -7
30 -15z"/>
<path d="M9759 9984 c-17 -21 0 -49 32 -49 18 0 25 6 27 24 6 38 -34 55 -59
25z m49 -17 c4 -20 -25 -34 -40 -19 -15 15 -1 44 19 40 10 -2 19 -11 21 -21z"/>
<path d="M3670 9971 c0 -6 4 -13 10 -16 6 -3 7 1 4 9 -7 18 -14 21 -14 7z"/>
<path d="M3721 9944 c0 -11 3 -14 6 -6 3 7 2 16 -1 19 -3 4 -6 -2 -5 -13z"/>
<path d="M3781 9944 c0 -11 3 -14 6 -6 3 7 2 16 -1 19 -3 4 -6 -2 -5 -13z"/>
<path d="M4032 9935 c0 -16 2 -22 5 -12 2 9 2 23 0 30 -3 6 -5 -1 -5 -18z"/>
<path d="M2391 9934 c0 -11 3 -14 6 -6 3 7 2 16 -1 19 -3 4 -6 -2 -5 -13z"/>
<path d="M3172 9930 c0 -14 2 -19 5 -12 2 6 2 18 0 25 -3 6 -5 1 -5 -13z"/>
<path d="M3261 9934 c0 -11 3 -14 6 -6 3 7 2 16 -1 19 -3 4 -6 -2 -5 -13z"/>
<path d="M4064 9930 c0 -13 4 -16 10 -10 7 7 7 13 0 20 -6 6 -10 3 -10 -10z"/>
<path d="M1355 9930 c-7 -11 21 -50 34 -50 4 0 6 12 5 28 -1 28 -26 42 -39 22z"/>
<path d="M2350 9931 c0 -6 4 -13 10 -16 6 -3 7 1 4 9 -7 18 -14 21 -14 7z"/>
<path d="M1970 9920 c0 -5 5 -10 11 -10 5 0 7 5 4 10 -3 6 -8 10 -11 10 -2 0
-4 -4 -4 -10z"/>
<path d="M731 9900 l-23 -20 26 0 c19 0 26 5 26 20 0 24 1 24 -29 0z"/>
<path d="M1505 9910 c-4 -7 -3 -16 3 -22 14 -14 45 -2 40 15 -6 16 -34 21 -43
7z"/>
<path d="M9763 9909 c-11 -4 -24 -12 -27 -18 -4 -6 5 -4 20 4 28 14 48 11 77
-13 16 -14 17 -14 12 0 -9 22 -55 37 -82 27z"/>
<path d="M10040 9885 c0 -8 5 -15 10 -15 6 0 10 7 10 15 0 8 -4 15 -10 15 -5
0 -10 -7 -10 -15z"/>
<path d="M10097 9894 c-8 -8 1 -24 14 -24 5 0 9 7 9 15 0 15 -12 20 -23 9z"/>
<path d="M913 9864 c-4 -11 1 -22 12 -30 27 -20 31 -18 30 13 0 32 -31 45 -42
17z"/>
<path d="M5814 9463 c-6 -10 -18 -43 -27 -73 -8 -30 -28 -95 -43 -145 -38
-128 -44 -153 -50 -219 -3 -33 -10 -69 -17 -80 -8 -14 -13 -86 -14 -216 -2
-214 -4 -230 -36 -274 -12 -17 -22 -33 -23 -36 0 -3 -3 -12 -7 -20 -9 -25 -20
-102 -22 -160 -2 -42 6 -77 32 -145 36 -96 54 -137 64 -145 3 -3 16 -23 29
-45 13 -22 39 -60 57 -83 55 -73 83 -126 86 -169 2 -22 7 -45 11 -52 11 -17
-3 -13 -36 10 -25 18 -32 19 -39 8 -5 -8 -9 -18 -9 -24 0 -5 4 -5 8 2 5 8 14
6 32 -7 14 -11 20 -20 15 -20 -6 0 -17 6 -23 12 -10 10 -15 10 -21 -1 -7 -11
-11 -10 -20 5 -13 24 -15 9 -1 -16 5 -10 35 -26 67 -36 32 -9 59 -18 61 -19 1
-2 6 -26 11 -54 8 -50 -6 -194 -27 -288 -7 -30 -6 -43 2 -47 7 -3 8 -7 1 -13
-34 -27 -41 -139 -21 -323 13 -110 23 -154 56 -240 22 -58 40 -108 40 -112 0
-17 97 -233 157 -352 36 -71 83 -175 104 -230 22 -56 70 -155 108 -221 38 -66
103 -190 144 -275 42 -85 85 -169 97 -186 l20 -32 -46 -7 c-26 -3 -53 -9 -60
-12 -18 -7 -18 -23 -1 -23 13 0 35 -26 86 -100 13 -19 32 -41 42 -48 14 -9 17
-20 12 -42 -4 -22 -1 -31 10 -36 9 -3 13 -12 10 -20 -3 -8 1 -14 11 -14 9 0
16 -4 16 -10 0 -5 8 -10 18 -10 23 0 90 -117 127 -224 38 -105 47 -105 12 1
-15 47 -26 87 -24 89 2 3 68 9 146 14 79 6 189 17 247 25 57 9 138 15 179 13
74 -3 75 -3 75 -30 0 -15 -5 -30 -10 -33 -6 -4 -17 -22 -24 -40 -22 -52 -137
-158 -219 -201 l-72 -39 520 -3 c286 -2 538 0 560 3 50 7 94 40 77 57 -16 16
-15 38 2 38 19 0 9 88 -12 113 -13 15 -14 20 -3 26 9 6 10 14 5 22 -12 20 -14
77 -4 105 8 19 6 26 -12 35 -11 6 -16 14 -11 18 11 7 12 131 1 131 -5 0 -8 5
-8 10 0 6 7 10 15 10 17 0 20 16 5 25 -16 10 -11 26 7 23 10 -2 18 4 19 12 3
36 5 41 13 35 11 -6 58 52 53 66 -1 5 20 31 46 57 27 27 51 53 53 58 12 28
113 103 154 113 25 6 51 20 57 31 7 11 19 20 26 20 7 0 18 4 25 10 7 5 45 31
84 57 40 27 73 54 73 61 0 6 5 12 10 12 6 0 10 6 10 13 0 6 18 30 39 52 75 77
91 96 86 105 -3 5 8 18 24 30 19 13 28 26 24 35 -3 8 -1 15 5 15 5 0 12 8 15
18 14 42 67 113 79 106 4 -3 8 0 8 6 0 6 9 21 21 33 11 12 30 41 42 65 22 45
66 84 101 89 11 2 26 12 33 23 17 24 33 26 33 5 0 -8 9 -15 19 -15 11 0 32
-12 48 -26 17 -15 35 -23 46 -20 13 3 21 -1 24 -15 6 -21 18 -25 29 -8 5 8 10
6 16 -5 5 -9 6 -21 3 -26 -14 -22 18 -7 72 34 61 46 118 116 128 157 10 39
-11 78 -50 94 -21 9 -68 15 -122 15 -119 0 -162 21 -199 96 -50 103 -18 245
65 288 15 8 53 18 82 21 120 13 169 40 169 93 0 65 -57 115 -188 166 -50 19
-88 43 -119 72 l-45 45 8 -58 c5 -32 9 -84 8 -115 0 -32 3 -58 8 -58 4 0 8 -4
8 -10 0 -5 -7 -7 -15 -4 -11 5 -15 -1 -15 -26 0 -17 5 -41 11 -53 8 -14 8 -22
1 -25 -5 -1 -8 -12 -5 -22 7 -25 -15 -174 -30 -209 -6 -14 -28 -42 -48 -63
-21 -20 -39 -44 -41 -55 -2 -10 -10 -17 -16 -16 -7 2 -11 -3 -9 -10 1 -6 -3
-11 -10 -10 -6 2 -20 -15 -29 -38 -14 -29 -40 -55 -100 -99 -45 -33 -84 -64
-86 -69 -1 -4 -39 -30 -83 -56 -44 -26 -87 -55 -95 -64 -14 -16 -114 -86 -205
-144 -22 -14 -62 -46 -89 -71 -27 -25 -55 -46 -63 -46 -7 0 -13 -5 -13 -11 0
-5 -4 -7 -10 -4 -5 3 -10 -1 -10 -9 0 -9 -8 -16 -18 -16 -10 0 -34 -12 -53
-26 -19 -14 -50 -33 -69 -42 -32 -15 -89 -49 -115 -69 -5 -5 -19 -9 -30 -11
-11 -2 -31 -15 -44 -28 -12 -14 -29 -23 -37 -20 -8 3 -14 -1 -14 -9 0 -8 -9
-15 -19 -15 -11 0 -23 -5 -26 -11 -4 -6 -13 -8 -20 -5 -7 2 -16 -2 -19 -10 -3
-8 -15 -14 -26 -14 -11 0 -20 -6 -20 -14 0 -9 -8 -12 -25 -8 -15 2 -25 0 -25
-7 0 -6 -6 -11 -13 -11 -7 0 -22 -8 -33 -17 -11 -10 -42 -29 -69 -43 -28 -14
-59 -33 -69 -42 -17 -16 -37 -22 -58 -20 -3 1 -12 -5 -18 -13 -7 -8 -23 -15
-36 -15 -13 0 -24 -4 -24 -10 0 -5 -11 -12 -25 -16 -14 -3 -25 -9 -25 -13 0
-7 -11 -7 -237 -10 -186 -2 -221 2 -284 37 -49 27 -84 25 -75 -5 3 -10 8 -39
12 -65 6 -47 5 -48 -20 -50 -90 -5 -106 -4 -106 9 0 7 -7 13 -15 13 -9 0 -18
7 -21 15 -4 8 -15 15 -25 15 -10 0 -19 4 -19 8 0 5 -9 19 -20 32 -15 18 -23
20 -34 11 -11 -9 -15 -5 -20 22 -4 22 -16 38 -36 51 -22 13 -29 23 -25 36 3
10 1 21 -4 25 -7 3 -8 0 -5 -9 4 -9 1 -16 -6 -16 -8 0 -11 9 -8 25 4 20 1 25
-16 25 -16 0 -18 2 -7 9 11 7 10 10 -5 14 -18 5 -18 5 1 12 17 5 20 14 20 58
-1 29 1 56 4 61 2 5 5 27 5 47 1 21 7 44 14 51 6 6 12 17 12 24 0 6 7 14 15
18 8 3 15 1 15 -3 0 -14 26 -20 41 -9 11 8 10 9 -3 4 -25 -8 -23 16 3 40 16
15 22 16 29 5 6 -11 9 -9 14 7 4 12 18 21 35 24 34 5 53 0 45 -13 -3 -5 0 -9
6 -9 6 0 10 8 8 18 -2 11 3 16 15 14 9 -2 17 3 17 11 0 8 21 25 47 37 25 12
42 25 36 28 -6 4 -9 19 -8 35 2 17 -1 27 -10 27 -8 0 -16 8 -18 18 -4 16 -5
16 -6 0 0 -10 -6 -18 -12 -18 -5 0 -7 5 -4 10 3 6 -2 10 -13 10 -31 0 -33 12
-4 36 15 13 22 24 15 24 -6 0 -19 -7 -27 -16 -9 -8 -16 -11 -16 -5 0 6 -11 6
-32 0 -18 -5 -33 -9 -34 -9 0 0 1 14 4 30 3 21 0 30 -9 30 -14 0 -45 39 -41
52 1 3 -5 9 -14 12 -10 4 -13 2 -8 -7 5 -8 4 -9 -4 -2 -6 6 -12 24 -15 40 -2
19 -5 9 -6 -25 l-2 -55 -17 35 c-25 49 -16 102 18 107 13 2 27 7 30 12 3 5 28
19 55 32 45 22 62 24 170 22 187 -3 174 -1 150 -19 -20 -15 -19 -15 5 -12 15
2 24 9 22 18 -1 10 2 9 13 -4 12 -16 17 -17 30 -6 11 9 15 9 15 1 0 -9 5 -9
20 -1 11 6 24 9 29 6 5 -3 32 1 62 10 32 10 68 14 91 10 23 -4 38 -2 38 4 0 5
-4 10 -10 10 -5 0 -10 7 -10 15 0 14 -11 18 -75 29 -74 12 -174 38 -212 56
-24 11 -45 20 -48 20 -4 0 -25 9 -48 19 -53 24 -120 54 -127 56 -21 7 -49 18
-70 27 -14 6 -42 12 -63 14 -22 1 -58 5 -82 8 -37 6 -47 4 -66 -16 -12 -13
-19 -17 -15 -10 5 8 0 12 -14 12 -12 0 -18 -4 -15 -10 3 -6 -1 -7 -9 -4 -9 3
-16 2 -16 -2 0 -18 -193 -22 -213 -6 -12 10 -21 6 -47 -20 -18 -18 -31 -28
-29 -23 13 30 48 83 73 110 16 16 47 63 69 103 21 39 43 72 48 72 4 0 6 7 3
15 -5 11 -2 13 10 9 12 -5 16 0 16 19 0 14 5 27 10 29 6 2 -1 19 -15 38 -14
18 -25 31 -25 26 0 -7 -140 66 -212 111 -21 13 -38 18 -38 13 0 -7 -9 -5 -21
4 -12 8 -29 12 -38 9 -9 -4 -13 -3 -9 1 4 5 -4 20 -18 35 -13 14 -29 40 -34
56 -7 23 -8 16 -3 -29 4 -43 3 -57 -6 -52 -6 4 -11 18 -11 32 0 21 -4 24 -39
24 -36 0 -40 3 -43 28 -2 19 -9 28 -25 30 -25 4 -32 22 -8 22 8 0 15 6 15 14
0 8 5 18 12 22 7 5 8 2 3 -7 -4 -8 3 -3 16 11 13 14 20 28 16 31 -5 4 -4 8 3
11 15 5 20 26 22 81 0 20 5 37 9 37 5 0 9 5 9 11 0 5 12 35 26 66 20 41 29 52
36 42 6 -10 8 -7 6 11 -2 15 2 25 10 25 7 0 21 11 31 24 12 15 24 22 35 18 11
-5 18 1 23 21 3 15 13 33 20 41 8 8 12 22 10 32 -3 10 -1 19 3 21 5 2 18 39
30 83 12 44 32 105 45 135 30 70 47 151 40 198 -3 20 -7 51 -9 67 -4 41 -23
85 -36 85 -5 0 -10 7 -10 15 0 8 -5 15 -11 15 -5 0 -14 12 -20 28 -5 15 -25
38 -44 52 -19 14 -35 30 -35 36 0 6 -8 18 -17 25 -14 12 -15 12 -9 0 12 -19
-33 -4 -60 20 -11 11 -26 19 -32 19 -7 0 -20 8 -31 19 -10 10 -33 26 -52 35
-32 17 -42 20 -89 30 -29 7 -40 15 -40 32 0 8 -8 14 -18 14 -38 0 -50 30 -46
113 3 57 1 77 -8 77 -9 0 -9 3 1 9 12 8 12 12 2 24 -10 13 -9 17 6 26 14 8 15
12 5 19 -11 8 -11 10 2 15 10 4 16 18 16 35 0 16 7 35 15 42 8 7 15 19 15 26
0 18 22 57 38 67 17 11 15 27 -3 27 -19 0 -19 0 1 39 10 19 18 69 21 128 3 75
9 102 24 121 10 13 16 29 13 34 -3 5 1 17 10 27 9 10 14 25 10 35 -5 12 0 16
17 16 45 0 4 19 -56 25 -52 6 -62 4 -71 -12z m331 -1463 c3 -5 15 -10 26 -10
10 0 19 -4 19 -10 0 -5 6 -10 14 -10 8 0 18 -5 22 -12 4 -6 3 -8 -4 -5 -13 9
-42 -2 -42 -15 0 -5 8 -7 19 -3 10 3 24 -1 31 -10 10 -12 10 -15 -1 -15 -9 -1
-6 -8 8 -19 l23 -19 -30 -11 c-17 -5 -30 -7 -30 -4 0 3 -9 -4 -19 -16 -10 -12
-32 -23 -49 -24 -17 -1 -28 -6 -25 -10 3 -5 -4 -11 -15 -14 -11 -3 -18 -11
-16 -18 3 -7 -2 -15 -10 -18 -15 -6 -20 5 -19 41 1 7 -2 11 -5 8 -3 -3 -11 -1
-19 5 -10 9 -10 15 -2 25 9 11 8 14 -1 14 -8 0 -10 3 -7 6 4 4 13 2 20 -5 11
-9 17 -8 27 4 11 13 10 14 -5 9 -13 -5 -16 -3 -13 7 3 8 11 13 17 12 6 -2 11
1 11 6 0 5 3 16 6 25 3 8 -3 22 -15 32 -16 14 -18 21 -9 31 8 10 13 11 18 3 4
-7 15 -4 31 9 27 23 35 25 44 11z m505 -1524 c0 -3 -4 -8 -10 -11 -5 -3 -10
-1 -10 4 0 6 5 11 10 11 6 0 10 -2 10 -4z m-57 -327 c-4 -21 -1 -34 8 -40 12
-8 11 -11 -4 -20 -9 -6 -14 -16 -11 -22 5 -8 4 -9 -4 -2 -6 6 -11 17 -13 25
-4 24 12 90 22 90 5 0 6 -14 2 -31z m-34 -65 c12 -73 9 -114 -5 -60 -3 14 -11
26 -16 26 -6 0 -8 6 -5 13 3 8 1 20 -4 28 -7 11 -9 11 -9 -4 0 -10 -7 -20 -16
-24 -8 -3 -13 -12 -10 -19 3 -8 2 -14 -3 -14 -10 0 -21 47 -13 55 3 3 11 0 17
-5 9 -8 11 -4 7 15 -4 21 -1 24 14 18 17 -6 17 -5 6 10 -15 17 -8 37 12 37 7
0 17 -29 25 -76z m-34 -44 c3 -5 1 -10 -4 -10 -6 0 -11 5 -11 10 0 6 2 10 4
10 3 0 8 -4 11 -10z m73 -25 c-3 -3 -9 2 -12 12 -6 14 -5 15 5 6 7 -7 10 -15
7 -18z m116 9 c4 -10 1 -14 -6 -12 -15 5 -23 28 -10 28 5 0 13 -7 16 -16z
m-117 -709 c6 -14 8 -25 4 -25 -12 0 -31 23 -31 37 0 21 14 15 27 -12z m778
-194 c-13 -11 -91 -23 -79 -11 5 4 20 10 34 13 44 8 54 7 45 -2z m455 -31 c0
-15 -37 -31 -55 -23 -15 5 -14 8 6 19 29 16 49 18 49 4z m0 -40 c0 -5 -2 -10
-4 -10 -3 0 -8 5 -11 10 -3 6 -1 10 4 10 6 0 11 -4 11 -10z m-13 -27 c2 -6 -8
-26 -24 -43 -20 -22 -37 -31 -61 -32 -45 -1 -60 15 -36 40 42 44 112 64 121
35z"/>
<path d="M7660 9468 c0 -17 129 -138 146 -138 16 0 17 -2 4 -11 -12 -8 -12 -9
5 -7 11 2 20 -1 20 -7 1 -21 17 -36 35 -30 10 3 21 1 25 -4 4 -7 -1 -8 -11 -4
-12 4 -15 3 -10 -5 4 -7 14 -12 22 -12 8 0 12 -5 9 -10 -4 -6 7 -13 24 -16 16
-4 40 -16 53 -28 31 -29 67 -46 73 -36 5 8 121 -72 220 -152 22 -18 34 -25 26
-15 -8 10 -55 50 -105 90 -50 39 -97 78 -105 85 -24 23 -120 92 -128 92 -4 0
-21 14 -37 30 -32 33 -52 39 -42 14 4 -10 2 -14 -6 -11 -7 2 -12 10 -10 16 1
7 -2 10 -6 7 -5 -3 -17 3 -27 14 -10 11 -13 20 -7 20 6 0 14 -4 17 -10 3 -5
11 -10 17 -10 6 0 -5 17 -25 37 -23 23 -33 39 -26 43 6 5 0 15 -18 28 -19 14
-23 21 -12 22 8 0 26 -12 40 -26 24 -27 185 -136 247 -168 18 -9 30 -21 27
-26 -4 -6 3 -10 13 -10 23 0 45 -23 34 -35 -4 -5 -1 -5 5 -1 17 9 44 -6 95
-54 42 -38 67 -52 52 -28 -4 7 -3 8 5 4 6 -4 9 -11 6 -15 -5 -9 88 -74 123
-85 12 -4 22 -12 22 -17 0 -5 8 -9 18 -9 15 0 15 2 2 11 -12 9 -12 10 3 5 10
-3 21 -6 23 -6 3 0 3 -4 0 -9 -3 -4 5 -6 17 -4 14 3 29 -2 36 -11 14 -17 46
-23 37 -7 -8 12 64 -14 73 -26 3 -5 13 -13 21 -17 26 -12 57 -31 74 -45 9 -7
16 -11 16 -8 0 3 17 -11 37 -32 21 -20 36 -39 35 -43 -1 -5 2 -8 7 -8 5 0 13
-10 17 -22 4 -13 14 -29 23 -36 15 -12 14 -13 -1 -8 -23 7 -23 0 6 -54 13 -25
22 -53 21 -63 -2 -9 1 -15 6 -11 5 3 9 1 9 -5 0 -5 9 -12 19 -16 12 -4 18 -12
14 -21 -3 -7 0 -14 6 -14 5 0 15 -9 21 -21 11 -20 11 -20 -16 -2 -26 17 -26
15 9 -35 21 -29 33 -52 28 -52 -6 0 -13 5 -16 10 -3 6 -12 10 -18 9 -7 0 -2
-7 11 -16 13 -9 39 -40 58 -69 20 -30 49 -65 65 -78 40 -34 37 -44 -3 -14 -52
39 -66 43 -30 10 30 -29 43 -62 23 -62 -5 0 -24 12 -42 27 l-32 27 17 -32 c12
-23 26 -35 47 -39 22 -4 27 -8 17 -14 -9 -6 -7 -9 10 -9 12 0 22 -5 22 -11 0
-6 -7 -9 -15 -6 -8 4 -3 -10 13 -33 27 -39 46 -53 36 -25 -4 8 -1 15 5 15 6 0
11 -7 11 -15 0 -9 6 -12 18 -9 11 4 13 3 5 -3 -11 -8 -9 -95 3 -115 10 -15 23
-8 17 10 -3 9 -3 14 2 10 13 -12 15 -100 2 -95 -6 2 -14 15 -18 28 -9 35 -55
102 -107 157 l-44 47 41 -61 c34 -51 40 -67 35 -93 -5 -25 -2 -36 15 -52 22
-21 28 -55 11 -61 -5 -1 -11 -22 -12 -45 -1 -26 -6 -43 -13 -43 -14 0 -33 20
-34 35 0 6 -8 11 -18 12 -10 2 -12 0 -5 -3 6 -3 12 -17 12 -30 0 -13 4 -24 9
-24 12 0 20 -71 11 -89 -10 -19 -20 0 -24 46 -3 27 -9 39 -22 42 -16 3 -17 1
-4 -14 12 -14 12 -18 -1 -26 -8 -5 -9 -9 -3 -9 6 0 15 -15 19 -32 10 -45 10
-168 1 -195 -6 -15 -4 -23 3 -23 6 0 11 9 11 21 0 31 19 59 40 59 16 0 17 -4
9 -36 -6 -19 -8 -45 -6 -57 4 -18 5 -17 6 6 0 15 6 27 11 27 6 0 10 10 11 23
1 12 5 3 11 -21 12 -57 24 -46 27 25 2 63 11 88 11 30 0 -20 4 -37 9 -37 5 0
7 15 5 33 -7 50 -7 59 -5 112 l3 50 10 -35 c16 -55 40 -110 50 -110 11 0 10 4
-3 34 -8 18 -9 29 -2 38 6 7 11 38 11 70 0 31 6 67 13 79 l12 23 8 -22 c12
-31 20 -27 14 6 -3 15 -2 21 1 15 3 -7 12 -13 20 -13 9 0 13 4 10 9 -8 12 19
33 29 23 4 -4 3 2 -3 13 -6 11 -21 40 -32 65 l-21 45 32 -37 c17 -21 36 -38
41 -38 7 0 7 4 0 13 -12 15 -63 127 -57 127 2 0 13 -10 25 -22 11 -12 22 -19
25 -16 4 3 -9 20 -27 37 -18 17 -27 31 -20 31 7 0 4 8 -8 20 -25 25 -26 43 -2
36 71 -22 271 -26 217 -5 -11 4 -43 8 -71 8 -64 1 -164 21 -164 33 0 17 24 35
41 31 12 -3 17 1 16 14 -1 12 6 19 21 21 12 2 22 10 22 18 0 8 4 14 10 14 5 0
56 47 112 104 82 82 113 107 153 121 28 9 75 28 105 40 83 35 159 55 208 55
40 0 50 -5 83 -40 37 -39 64 -101 47 -108 -4 -2 -5 -8 -2 -13 6 -11 -34 -4
-79 13 -38 15 -106 5 -162 -23 -84 -42 -160 -148 -143 -199 5 -15 58 26 58 45
0 7 14 18 30 25 17 7 30 16 30 19 0 16 80 51 114 51 40 0 102 -27 127 -56 20
-24 76 -162 85 -212 4 -20 9 -41 12 -47 3 -5 7 -20 8 -33 3 -26 11 -38 19 -30
5 5 13 58 14 94 1 17 6 20 26 16 14 -2 23 -7 20 -11 -2 -4 3 -27 11 -51 21
-60 21 -246 0 -325 -20 -76 -137 -310 -174 -350 -16 -16 -51 -51 -79 -77 l-51
-47 43 -58 c139 -187 227 -490 211 -728 -24 -347 -84 -525 -225 -665 -75 -74
-140 -113 -231 -136 -110 -28 -211 -1 -267 72 -18 24 -29 32 -32 23 -2 -8 -8
-17 -14 -20 -11 -8 -13 -161 -2 -179 4 -7 10 -28 12 -48 3 -20 16 -50 29 -65
13 -16 24 -32 24 -37 0 -5 5 -21 11 -37 6 -15 10 -29 10 -31 -1 -1 6 -18 14
-38 8 -20 15 -47 15 -60 0 -19 5 -24 26 -24 20 0 25 -4 20 -16 -4 -11 8 -31
38 -61 44 -44 45 -44 85 -33 23 6 52 22 65 37 l24 26 41 -43 c23 -24 41 -49
41 -55 0 -7 8 -27 17 -46 21 -39 33 -166 36 -352 2 -101 5 -130 17 -137 13 -8
12 -11 -4 -23 -13 -9 -16 -20 -12 -35 8 -25 38 -29 79 -9 29 13 36 27 12 27
-20 0 -19 16 1 24 22 9 24 8 25 -11 0 -11 3 -13 6 -5 2 6 17 11 31 11 22 -1
23 -3 6 -6 -16 -3 -20 -10 -17 -27 5 -22 11 -24 100 -30 52 -4 98 -4 101 -1 4
4 7 1148 7 2543 l0 2537 -1352 1 c-744 0 -1353 -4 -1353 -8z m476 -35 c-6 -6
-36 9 -36 18 0 5 9 4 20 -3 10 -7 18 -14 16 -15z m-373 -23 c9 -11 13 -20 8
-20 -4 0 -16 9 -26 20 -10 11 -14 20 -9 20 5 0 17 -9 27 -20z m282 -10 c3 -6
-1 -7 -9 -4 -18 7 -21 14 -7 14 6 0 13 -4 16 -10z m-94 -27 c13 -16 12 -17 -3
-4 -10 7 -18 15 -18 17 0 8 8 3 21 -13z m223 -64 c19 -18 0 -16 -29 3 -27 18
-28 19 -5 13 14 -4 29 -11 34 -16z m284 -254 c-3 -3 -9 2 -12 12 -6 14 -5 15
5 6 7 -7 10 -15 7 -18z m33 -22 c13 -16 12 -17 -3 -4 -10 7 -18 15 -18 17 0 8
8 3 21 -13z m63 -32 c-2 -3 -12 3 -22 13 -16 17 -16 18 5 5 12 -7 20 -15 17
-18z m331 -189 c-3 -8 3 -20 12 -27 10 -8 18 -19 18 -27 1 -7 6 -12 13 -10 7
1 12 -5 12 -14 0 -9 11 -25 24 -35 20 -15 42 -59 31 -59 -2 0 -25 28 -52 62
-26 35 -56 71 -65 80 -12 12 -14 19 -6 24 7 4 2 14 -13 26 l-24 19 28 -13 c18
-7 26 -17 22 -26z m19 -118 c3 -8 2 -12 -4 -9 -6 3 -10 10 -10 16 0 14 7 11
14 -7z m336 -674 c0 -5 -4 -10 -10 -10 -5 0 -10 5 -10 10 0 6 5 10 10 10 6 0
10 -4 10 -10z m40 -131 c0 -11 -4 -17 -10 -14 -5 3 -10 13 -10 21 0 8 5 14 10
14 6 0 10 -9 10 -21z m-10 -52 c0 -18 -2 -19 -10 -7 -13 20 -13 43 0 35 6 -3
10 -16 10 -28z m-99 -109 c11 -21 11 -22 -4 -9 -10 7 -17 17 -17 22 0 15 9 10
21 -13z m-34 -164 c-3 -3 -12 -4 -19 -1 -8 3 -5 6 6 6 11 1 17 -2 13 -5z m983
-3030 c0 -12 -21 -44 -29 -44 -14 0 -20 39 -7 44 16 7 36 7 36 0z m-60 -114
c0 -5 -4 -10 -10 -10 -5 0 -10 5 -10 10 0 6 5 10 10 10 6 0 10 -4 10 -10z"/>
<path d="M8056 9152 c-3 -6 1 -18 10 -26 19 -20 23 -20 20 -1 -3 22 -22 39
-30 27z"/>
<path d="M7503 9007 c-7 -13 -28 -18 -132 -33 -44 -6 -105 -38 -143 -75 -17
-16 -34 -27 -37 -24 -3 3 8 17 24 31 17 14 30 29 30 34 0 5 4 12 9 17 5 5 6 3
2 -4 -10 -18 -2 -16 45 8 23 11 38 23 35 26 -3 3 -11 1 -18 -4 -20 -16 -62
-27 -54 -14 10 16 -26 0 -42 -18 -11 -13 -12 -13 -7 -1 4 10 2 9 -8 -2 -8 -10
-17 -15 -20 -12 -7 7 -50 -15 -59 -30 -3 -6 -32 -12 -65 -14 -51 -3 -64 -8
-108 -45 -27 -23 -44 -33 -36 -23 13 15 9 15 -27 -4 -23 -12 -42 -26 -42 -32
0 -5 -4 -7 -8 -4 -12 7 -26 -5 -39 -34 l-12 -25 -1 30 -1 30 -12 -25 c-6 -14
-14 -27 -18 -30 -3 -3 -11 -14 -17 -25 -11 -20 -11 -20 -12 0 0 33 -18 3 -34
-58 -16 -60 -15 -122 2 -154 6 -10 25 -31 42 -48 27 -26 33 -28 43 -15 7 9 22
15 34 14 14 -1 25 6 29 18 6 19 6 19 20 1 12 -17 13 -16 14 7 0 19 3 21 12 12
7 -7 22 -12 35 -12 16 0 23 -6 23 -18 0 -15 6 -18 33 -14 17 3 34 8 37 12 3 4
21 10 40 14 31 6 33 5 15 -8 -11 -7 -25 -12 -32 -9 -7 3 -17 -6 -22 -19 -19
-50 -67 -62 -78 -19 -5 20 -29 31 -50 24 -21 -7 -15 -23 8 -23 18 0 20 -4 15
-25 -5 -21 -2 -27 20 -35 21 -8 31 -7 45 6 14 13 22 14 33 5 7 -6 21 -8 31 -5
15 6 15 8 -5 19 -23 12 -23 12 8 26 17 7 26 16 21 20 -6 3 1 9 15 13 14 3 26
11 26 16 0 6 5 10 10 10 17 0 11 -17 -10 -26 -15 -6 -1 -9 48 -10 67 -1 68 0
50 18 -19 19 -33 24 -23 8 3 -5 -3 -10 -15 -10 -12 0 -18 5 -15 10 3 6 1 10
-4 10 -6 0 -11 5 -11 11 0 5 6 7 13 3 8 -5 8 -2 -2 9 -12 15 -11 17 2 17 9 0
19 -5 22 -10 4 -6 11 -8 16 -4 5 3 8 1 7 -4 -2 -5 12 -21 30 -36 17 -15 32
-22 32 -16 0 9 5 9 18 -1 15 -13 16 -12 4 3 -8 9 -20 14 -28 11 -10 -4 -12 0
-8 11 4 10 14 15 30 12 29 -5 29 -3 7 20 -16 16 -16 16 7 9 14 -4 28 -13 32
-19 6 -8 8 -8 8 1 0 6 -4 15 -10 18 -5 3 -10 15 -10 26 0 17 11 24 33 20 5 -1
6 3 2 9 -7 12 -35 14 -35 2 0 -4 -31 -8 -68 -8 -37 0 -76 -6 -87 -12 -18 -10
-18 -12 10 -13 17 -1 34 -1 38 0 5 1 6 -3 2 -9 -8 -14 -57 -2 -74 19 -12 14
-13 13 -7 -11 6 -25 4 -28 -19 -28 -22 0 -25 4 -20 20 5 17 2 19 -24 16 -18
-2 -31 1 -31 7 0 7 -4 7 -12 -1 -7 -7 -15 -12 -19 -12 -10 0 10 84 22 88 5 2
9 10 9 18 0 9 4 13 9 10 5 -3 9 -17 9 -32 0 -18 -3 -22 -9 -13 -7 11 -9 10 -9
-4 0 -14 5 -17 21 -12 19 6 21 4 16 -14 -3 -15 -1 -21 6 -18 13 4 13 20 2 52
-4 11 3 5 16 -12 13 -18 32 -33 43 -33 15 0 16 3 6 15 -7 8 -16 12 -21 10 -12
-8 -30 31 -23 50 4 9 13 14 20 11 7 -3 30 11 51 30 21 20 39 31 41 25 2 -7 15
-3 32 9 15 11 33 20 40 20 7 0 9 8 5 21 -5 15 -4 19 5 14 6 -4 22 3 35 15 17
16 28 19 40 12 12 -6 14 -11 6 -16 -6 -4 -11 -2 -11 5 0 8 -4 8 -15 -1 -8 -7
-15 -17 -15 -22 0 -7 5 -6 13 1 8 6 17 8 20 4 4 -3 18 5 31 18 32 32 54 49 62
49 4 0 13 8 21 18 13 15 13 15 3 -5 -6 -13 -14 -23 -18 -23 -7 -1 -46 -50 -39
-50 2 0 18 13 37 30 24 22 40 28 59 25 22 -5 23 -4 6 4 l-20 10 20 2 c11 1 27
2 35 3 8 1 21 5 29 10 10 6 12 6 7 -2 -5 -9 3 -11 28 -10 20 2 36 6 36 9 0 4
7 9 14 12 10 4 13 1 9 -9 -3 -7 0 -14 6 -14 6 0 11 8 12 18 0 10 3 12 6 5 7
-20 23 -15 23 7 0 13 -5 18 -15 14 -8 -4 -15 -2 -15 3 0 18 38 11 43 -8 3 -12
14 -19 29 -19 18 0 20 -2 8 -10 -12 -8 -11 -10 6 -10 20 0 43 -28 26 -31 -4
-1 -20 -3 -36 -5 -16 -2 -33 -7 -38 -12 -14 -14 39 -24 62 -12 11 6 47 9 80 7
63 -4 77 6 35 25 -14 6 -25 15 -25 20 0 5 -8 8 -17 6 -10 -1 -24 1 -32 6 -10
6 -12 5 -7 -2 10 -17 -3 -15 -20 3 -12 12 -12 15 -2 16 7 0 2 6 -12 12 -50 24
-56 30 -34 38 16 6 14 8 -11 9 -16 2 -36 2 -42 1 -25 -3 -12 9 20 19 27 8 24
9 -23 4 -55 -5 -63 9 -10 19 18 3 15 5 -12 6 -23 0 -38 6 -38 14 0 8 -4 7 -10
-3 -9 -13 -14 -8 -12 11 1 4 -18 12 -42 18 -24 6 -50 13 -59 17 -8 3 -19 -1
-24 -9z m65 -24 c-10 -2 -28 -2 -40 0 -13 2 -5 4 17 4 22 1 32 -1 23 -4z
m-137 -87 c-11 -13 -106 -66 -119 -66 -18 0 42 41 68 46 16 4 35 13 41 20 6 8
14 14 16 14 3 0 0 -6 -6 -14z m105 5 c-10 -16 19 -19 39 -5 22 16 35 18 35 4
0 -5 -7 -10 -17 -10 -9 0 -14 -3 -10 -6 3 -4 20 -2 36 4 19 7 31 7 31 1 0 -5
10 -10 23 -10 20 -1 20 -2 2 -6 -11 -3 -23 -10 -27 -16 -4 -6 -10 -8 -15 -4
-4 5 -1 13 7 18 12 9 11 9 -5 4 -11 -4 -39 -11 -63 -16 -24 -5 -47 -11 -52
-14 -5 -3 -12 0 -16 6 -3 6 0 15 7 20 8 4 15 13 15 19 2 17 4 20 10 20 3 0 3
-4 0 -9z m-536 -46 c-19 -14 -36 -25 -39 -25 -11 1 50 50 62 50 6 0 -4 -11
-23 -25z m140 21 c0 -2 -17 -16 -37 -31 l-38 -27 33 31 c30 29 42 37 42 27z
m290 -57 c0 -4 -7 -9 -15 -13 -8 -3 -15 0 -15 6 0 9 -3 9 -12 0 -7 -7 -17 -12
-22 -12 -6 0 -4 6 5 13 18 13 59 17 59 6z m-325 -9 c-3 -5 -12 -10 -18 -10 -7
0 -6 4 3 10 19 12 23 12 15 0z m220 -29 c-3 -6 -11 -11 -17 -11 -6 0 -6 6 2
15 14 17 26 13 15 -4z m-442 -36 c-3 -9 -8 -14 -10 -11 -3 3 -2 9 2 15 9 16
15 13 8 -4z m417 -225 c0 -5 -2 -10 -4 -10 -3 0 -8 5 -11 10 -3 6 -1 10 4 10
6 0 11 -4 11 -10z m-235 -20 c-3 -5 -15 -10 -25 -10 -10 0 -21 -4 -25 -10 -8
-13 -35 -1 -29 14 3 7 23 13 45 15 26 1 38 -2 34 -9z"/>
<path d="M4080 8779 c-202 -12 -327 -27 -358 -43 -15 -8 -41 -29 -59 -45 l-32
-31 6 -184 6 -184 -31 -16 -32 -17 0 -143 0 -144 -27 -7 c-62 -15 -63 -20 -63
-229 0 -105 -4 -197 -9 -205 -7 -11 -24 -11 -97 -2 -175 22 -385 32 -777 38
-386 6 -397 7 -381 25 10 10 22 18 29 18 22 0 47 39 56 86 11 61 -15 122 -64
149 -32 17 -53 17 -167 2 -19 -2 -39 -1 -45 3 -5 4 -18 10 -28 13 -14 5 -16 2
-11 -20 5 -19 3 -24 -7 -21 -8 3 -16 15 -17 27 -3 21 -8 23 -39 18 -44 -8 -49
-12 -33 -32 7 -8 10 -23 7 -34 -6 -23 15 -27 153 -30 52 -1 97 -7 98 -12 2 -5
11 -9 20 -9 30 -1 62 -34 68 -72 l6 -36 -43 -6 c-24 -3 -83 -8 -131 -12 l-87
-6 -5 34 c-4 18 -5 49 -4 68 3 34 2 35 -39 38 l-43 3 0 -59 c0 -41 -5 -63 -15
-72 -8 -7 -15 -18 -15 -25 0 -17 -116 -29 -217 -23 -40 3 -78 1 -85 -4 -7 -4
34 -8 92 -9 145 -2 78 -14 -158 -28 -203 -13 -339 -33 -392 -59 l-35 -17 -3
-377 c-2 -345 -1 -378 14 -378 12 0 6 -9 -17 -29 l-33 -30 -7 -623 c-4 -343
-5 -633 -2 -646 7 -31 32 -42 92 -42 69 0 78 -5 73 -40 -6 -42 19 -75 70 -93
36 -12 130 -14 573 -13 338 1 535 -2 543 -8 9 -6 20 -6 30 0 9 5 42 7 72 5 30
-2 449 -5 930 -7 481 -2 895 -7 919 -12 24 -4 49 -15 55 -24 14 -24 0 -34 -21
-16 -10 8 -25 15 -33 15 -8 0 -29 3 -46 7 -22 5 -36 3 -45 -7 -17 -16 -39 -11
-39 9 0 20 -26 18 -34 -3 -7 -18 9 -33 37 -33 19 0 22 -11 6 -27 -6 -6 -13
-55 -16 -109 -3 -55 -10 -107 -15 -116 -5 -11 -4 -60 2 -124 9 -84 8 -109 -2
-122 -11 -13 -10 -15 5 -9 14 5 17 0 18 -31 1 -20 0 -41 -1 -47 -1 -5 1 -40 5
-77 l7 -68 413 0 c386 0 414 1 418 18 3 9 5 163 6 341 1 276 -1 328 -15 357
-9 18 -21 37 -27 43 -7 5 -122 12 -256 16 l-244 8 50 18 c30 12 55 29 63 43
10 20 13 216 14 978 1 1087 9 995 -87 1022 -28 8 -77 18 -107 21 -76 10 -156
31 -182 49 -24 17 -19 21 45 30 21 3 52 11 68 18 26 11 29 17 25 43 -3 17 -8
144 -12 283 -5 175 -11 257 -19 269 -7 10 -28 22 -46 28 l-34 12 -5 144 -5
144 -31 9 -31 9 -7 162 c-3 90 -3 170 0 180 6 14 16 16 60 13 l54 -5 0 62 c0
34 -5 66 -12 73 -13 13 -12 13 -228 1z m-387 -479 c-5 -8 -10 73 -13 180 -3
124 -1 198 5 202 12 9 20 -358 8 -382z m-33 -169 c0 -114 -3 -140 -15 -145
-13 -5 -15 15 -15 139 0 122 2 145 15 145 13 0 15 -22 15 -139z m193 -168
c-13 -2 -35 -2 -50 0 -16 2 -5 4 22 4 28 0 40 -2 28 -4z m-264 -135 c-1 -62
-4 -103 -6 -90 -2 12 -8 22 -13 22 -5 0 -11 -57 -13 -127 -2 -111 -3 -104 -5
52 -2 198 3 255 24 255 11 0 14 -23 13 -112z m-1662 -264 c-3 -3 -12 -4 -19
-1 -8 3 -5 6 6 6 11 1 17 -2 13 -5z m-595 -426 c-2 -256 1 -364 9 -368 6 -4
-13 -10 -41 -14 -29 -4 -54 -5 -56 -3 -3 2 -6 169 -7 370 -2 410 -9 372 68
376 l30 1 -3 -362z m2255 260 c-2 -18 -4 -6 -4 27 0 33 2 48 4 33 2 -15 2 -42
0 -60z m33 -83 c0 -2 -9 -9 -20 -15 -16 -9 -20 -8 -20 5 0 8 9 15 20 15 11 0
20 -2 20 -5z m168 -102 c-27 -2 -69 -2 -95 0 -27 2 -5 3 47 3 52 0 74 -1 48
-3z m-402 -87 l-6 -64 347 6 c350 5 696 -5 638 -19 -16 -3 -24 -7 -17 -8 10
-1 13 -17 10 -63 -3 -55 -6 -63 -21 -60 -10 2 -29 -4 -43 -13 -43 -28 -25 -82
33 -99 25 -8 38 -35 23 -50 -7 -7 -20 -7 -42 2 -41 15 -50 6 -18 -20 15 -12
34 -18 52 -16 15 3 25 1 23 -2 -5 -8 -18 -210 -16 -249 1 -12 12 -32 26 -42
13 -11 34 -34 47 -52 15 -22 17 -28 5 -18 -9 7 -17 12 -18 10 0 -2 -2 -24 -3
-49 -1 -33 -11 -60 -34 -95 -50 -76 -42 -94 22 -50 20 13 36 21 36 17 -1 -13
-49 -62 -62 -62 -8 0 -6 -5 5 -11 9 -5 21 -8 26 -4 5 3 12 1 16 -5 3 -5 -7
-12 -22 -16 -33 -8 -65 -33 -57 -45 11 -18 46 -8 75 20 16 16 29 27 29 25 0
-16 -34 -66 -57 -84 -25 -19 -45 -79 -23 -65 6 3 7 0 4 -8 -6 -17 -69 -27
-164 -27 -58 0 -76 5 -131 35 -35 20 -129 68 -209 107 -80 39 -172 92 -205
118 -68 54 -251 146 -308 155 -43 7 -99 52 -116 92 -8 19 -11 119 -9 323 l3
295 60 10 60 10 3 55 c3 69 7 80 28 80 15 0 16 -8 10 -64z m970 -251 c10 -8
15 -15 10 -15 -5 0 -3 -7 4 -15 18 -22 9 -26 -32 -15 -35 10 -54 32 -42 51 8
14 38 11 60 -6z m-2353 -172 c-40 -2 -106 -2 -145 0 -40 1 -8 3 72 3 80 0 112
-2 73 -3z m120 0 c-7 -2 -21 -2 -30 0 -10 3 -4 5 12 5 17 0 24 -2 18 -5z
m-813 -44 c-6 -10 -10 -48 -10 -86 l0 -68 763 0 c655 0 1090 -10 995 -23 -23
-3 -28 -8 -28 -31 0 -16 -7 -34 -15 -41 -12 -10 -13 -15 -4 -21 10 -6 10 -26
0 -95 -12 -85 -24 -122 -43 -135 -5 -3 5 -12 22 -19 17 -7 41 -26 55 -42 34
-40 72 -170 45 -153 -5 3 -10 -3 -10 -14 0 -20 -59 -87 -93 -106 -15 -8 -8
-10 28 -10 35 0 51 6 62 20 15 19 15 18 8 -10 -11 -49 -37 -86 -85 -121 -25
-18 -43 -38 -41 -45 3 -8 6 -33 9 -56 l4 -43 -741 0 -741 0 -6 28 c-3 15 -14
61 -24 102 -10 41 -21 93 -25 115 -4 22 -26 81 -50 130 -23 50 -48 108 -55
130 -7 22 -22 58 -33 80 -17 35 -19 52 -14 145 4 58 9 129 13 158 l7 52 -30 0
-30 0 -13 -143 c-7 -79 -10 -156 -7 -172 3 -17 22 -77 42 -135 l38 -105 -7
-180 c-10 -259 -16 -339 -25 -348 -4 -4 -18 0 -30 10 -23 18 -23 19 -28 428
-3 226 -6 501 -7 612 -1 227 -8 209 76 210 33 1 36 -1 28 -18z m2064 -545 c0
-43 -2 -243 -3 -444 -2 -260 -5 -358 -13 -340 -11 28 -25 828 -14 855 3 9 12
15 19 12 8 -2 12 -28 11 -83z m-277 -246 c-3 -8 -6 -5 -6 6 -1 11 2 17 5 13 3
-3 4 -12 1 -19z m1173 -742 c0 -16 -24 -38 -33 -30 -7 7 14 44 25 44 5 0 8 -6
8 -14z"/>
<path d="M3889 6876 c-18 -25 -35 -46 -38 -46 -3 0 -19 18 -34 40 -16 22 -32
40 -38 40 -5 0 7 -22 26 -49 25 -34 35 -59 35 -85 0 -20 5 -36 10 -36 6 0 10
16 10 35 0 24 11 50 36 85 20 28 34 53 31 57 -3 3 -20 -16 -38 -41z"/>
<path d="M3954 6907 c-3 -8 -4 -49 -2 -93 l3 -79 63 -3 c38 -2 62 1 62 8 0 6
-23 10 -55 10 l-55 0 0 35 0 35 51 0 c31 0 48 4 44 10 -3 6 -17 7 -30 4 -40
-10 -65 4 -65 37 0 29 1 29 55 29 30 0 55 5 55 10 0 16 -120 13 -126 -3z"/>
<path d="M4117 6913 c-11 -11 -8 -183 3 -183 6 0 10 18 10 40 0 36 3 40 25 40
18 0 32 -11 51 -40 15 -22 31 -40 35 -40 13 0 11 9 -12 46 l-21 34 23 18 c29
24 20 68 -17 82 -29 11 -87 13 -97 3z m108 -35 c19 -17 -10 -43 -54 -46 -41
-3 -41 -3 -41 33 l0 35 43 -6 c23 -4 46 -11 52 -16z"/>
<path d="M3506 6897 c-11 -23 0 -135 15 -153 14 -17 94 -19 84 -3 -4 5 -19 7
-34 4 -40 -8 -50 10 -53 95 -2 52 -6 69 -12 57z"/>
<path d="M3687 6875 c-26 -55 -23 -65 21 -65 21 0 41 3 45 6 6 7 -33 94 -43
94 -4 0 -14 -16 -23 -35z m37 -11 c10 -26 7 -34 -14 -34 -11 0 -20 4 -20 9 0
17 12 41 20 41 4 0 11 -7 14 -16z"/>
<path d="M3640 6770 c-7 -17 -10 -33 -7 -37 4 -3 11 6 16 21 9 23 16 26 60 26
45 0 52 -3 65 -27 18 -33 21 -15 4 22 -10 23 -17 25 -68 25 -55 0 -58 -2 -70
-30z"/>
<path d="M3810 6635 c-19 -23 -8 -50 20 -50 16 0 26 6 28 18 4 18 -14 47 -28
47 -4 0 -13 -7 -20 -15z m37 -11 c8 -21 -13 -42 -28 -27 -13 13 -5 43 11 43 6
0 13 -7 17 -16z"/>
<path d="M3889 6613 c4 -31 6 -33 9 -13 2 14 9 31 14 38 8 9 5 12 -9 12 -16 0
-18 -5 -14 -37z"/>
<path d="M3980 6635 c-18 -22 -3 -55 26 -55 13 0 24 5 24 11 0 6 -9 8 -21 4
-17 -6 -20 -3 -17 17 2 16 9 22 22 20 11 -2 15 1 11 7 -9 15 -30 14 -45 -4z"/>
<path d="M3510 6610 l0 -31 21 20 c22 20 19 41 -7 41 -9 0 -14 -11 -14 -30z
m30 10 c0 -5 -4 -10 -10 -10 -5 0 -10 5 -10 10 0 6 5 10 10 10 6 0 10 -4 10
-10z"/>
<path d="M3560 6608 c0 -26 3 -30 11 -18 8 11 12 12 16 3 8 -22 19 -14 18 15
0 20 -6 28 -22 30 -20 3 -23 -1 -23 -30z m40 18 c0 -11 -19 -15 -25 -6 -3 5 1
10 9 10 9 0 16 -2 16 -4z"/>
<path d="M3625 6619 c-4 -12 -2 -26 5 -33 9 -8 11 -6 6 11 -8 24 10 41 26 25
8 -8 7 -16 -2 -27 -7 -8 -8 -15 -2 -15 13 0 23 26 16 45 -9 22 -42 18 -49 -6z"/>
<path d="M3701 6610 c1 -19 3 -27 6 -17 5 18 18 23 27 8 4 -5 1 -12 -4 -14 -7
-4 -6 -5 0 -4 7 2 11 6 11 10 -1 4 -1 17 -1 30 0 18 -2 19 -10 7 -9 -13 -11
-13 -20 0 -7 11 -9 6 -9 -20z"/>
<path d="M3772 6610 c0 -19 2 -27 5 -17 2 9 2 25 0 35 -3 9 -5 1 -5 -18z"/>
<path d="M3942 6610 c0 -19 2 -27 5 -17 2 9 2 25 0 35 -3 9 -5 1 -5 -18z"/>
<path d="M3510 6516 c0 -8 7 -17 16 -20 8 -3 12 -10 9 -16 -4 -6 -12 -7 -18
-4 -9 5 -9 4 0 -6 6 -7 16 -9 22 -6 17 11 13 33 -6 40 -15 6 -15 8 -3 16 13 8
12 10 -2 10 -10 0 -18 -6 -18 -14z"/>
<path d="M3570 6495 c0 -35 12 -46 26 -23 4 7 3 8 -4 4 -8 -5 -12 1 -12 18 0
13 6 27 13 29 7 3 5 6 -5 6 -14 1 -18 -7 -18 -34z"/>
<path d="M3630 6498 c0 -25 3 -29 10 -18 9 13 11 13 21 0 9 -13 10 -13 6 1 -3
9 -1 21 5 27 6 6 6 12 -1 16 -6 4 -11 0 -11 -9 0 -9 -5 -13 -10 -10 -6 4 -8
11 -5 16 4 5 1 9 -4 9 -6 0 -11 -15 -11 -32z"/>
<path d="M3698 6499 c4 -24 9 -29 26 -27 16 2 21 11 22 33 2 29 2 29 -3 3 -6
-35 -33 -37 -33 -3 0 14 -4 25 -8 25 -5 0 -7 -14 -4 -31z"/>
<path d="M3771 6500 c0 -19 3 -29 6 -22 4 10 8 10 19 1 20 -17 17 2 -6 31
l-20 25 1 -35z"/>
<path d="M3817 6516 c-4 -10 -3 -25 2 -33 12 -23 23 0 13 28 -8 20 -9 20 -15
5z"/>
<path d="M4351 6318 c0 -46 3 -76 6 -68 3 8 12 19 19 23 29 17 10 127 -22 127
-2 0 -4 -37 -3 -82z"/>
<path d="M1630 6325 c-4 -94 -2 -108 17 -122 20 -15 79 -17 88 -3 4 6 -11 10
-39 10 -53 0 -54 2 -59 115 l-3 70 -4 -70z"/>
<path d="M1820 6344 c-11 -25 -20 -50 -20 -55 0 -5 20 -9 45 -9 25 0 45 4 45
9 0 14 -39 101 -45 101 -3 0 -15 -21 -25 -46z m28 -42 c-28 -5 -31 1 -16 33
l12 28 12 -29 c11 -26 10 -29 -8 -32z"/>
<path d="M1910 6385 c0 -3 16 -29 35 -58 26 -39 35 -62 35 -94 0 -24 5 -43 10
-43 6 0 10 19 10 42 0 33 9 55 36 96 20 29 34 55 31 58 -3 3 -19 -15 -37 -40
-17 -25 -35 -46 -40 -46 -4 0 -21 20 -37 45 -25 39 -43 56 -43 40z"/>
<path d="M2100 6290 l0 -100 64 0 c36 0 68 5 71 10 4 6 -17 10 -54 10 l-61 0
0 35 0 35 50 0 c28 0 50 5 50 10 0 6 -22 10 -50 10 l-50 0 0 35 0 35 61 0 c37
0 58 4 54 10 -3 6 -35 10 -71 10 l-64 0 0 -100z"/>
<path d="M2270 6290 c0 -60 4 -100 10 -100 6 0 10 20 10 45 0 43 1 45 29 45
24 0 35 -8 58 -45 15 -25 34 -45 41 -45 8 0 2 17 -17 44 l-30 43 24 11 c18 9
25 19 25 41 0 41 -32 61 -97 61 l-53 0 0 -100z m123 59 c20 -32 1 -49 -53 -49
l-50 0 0 36 0 35 46 -3 c30 -2 51 -9 57 -19z"/>
<path d="M2482 6374 c-25 -17 -29 -56 -8 -73 7 -6 31 -17 52 -25 31 -10 39
-18 39 -37 0 -20 -6 -25 -32 -27 -18 -2 -42 2 -53 8 -28 15 -39 4 -14 -15 23
-17 95 -20 112 -3 16 16 15 63 0 76 -7 5 -32 15 -55 21 -36 10 -43 16 -43 36
0 29 37 43 68 26 25 -13 42 -14 42 -3 0 11 -45 32 -68 32 -10 0 -28 -7 -40
-16z"/>
<path d="M1769 6233 c-14 -38 -5 -52 10 -15 12 30 17 32 62 32 44 0 50 -3 64
-31 21 -39 32 -30 15 11 -12 29 -15 30 -76 30 -61 0 -65 -2 -75 -27z"/>
<path d="M1627 6094 c-4 -4 -7 -20 -7 -36 0 -21 5 -28 20 -28 11 0 23 7 27 16
10 27 -22 65 -40 48z m30 -38 c-4 -9 -11 -16 -17 -16 -11 0 -14 33 -3 43 11
11 26 -10 20 -27z"/>
<path d="M1692 6071 c-7 -19 -10 -37 -7 -39 3 -3 5 0 5 6 0 7 7 12 15 12 8 0
15 -5 15 -12 0 -6 2 -9 6 -6 3 3 -1 21 -9 39 l-13 34 -12 -34z"/>
<path d="M1782 6068 c-2 -34 1 -38 21 -37 15 1 17 3 5 6 -10 2 -18 17 -21 36
-4 31 -4 31 -5 -5z"/>
<path d="M1924 6086 c-10 -26 1 -51 24 -54 17 -3 22 2 22 17 0 12 -4 21 -10
21 -5 0 -7 -7 -4 -15 4 -10 0 -15 -11 -15 -11 0 -15 7 -13 23 2 15 9 21 22 19
11 -2 15 1 11 7 -9 16 -35 13 -41 -3z"/>
<path d="M1992 6068 c-2 -34 1 -38 21 -37 15 1 17 3 5 6 -10 2 -18 17 -21 36
-4 31 -4 31 -5 -5z"/>
<path d="M2051 6081 c-15 -27 -3 -53 23 -49 16 2 21 10 21 33 0 36 -28 46 -44
16z m36 -25 c-4 -9 -11 -16 -17 -16 -11 0 -14 33 -3 43 11 11 26 -10 20 -27z"/>
<path d="M2144 6086 c-5 -14 -9 -15 -15 -4 -6 9 -9 8 -9 -7 0 -40 16 -48 30
-15 7 17 10 33 7 37 -4 3 -10 -2 -13 -11z"/>
<path d="M2172 6080 c-14 -23 -16 -50 -3 -50 9 0 26 58 19 65 -2 2 -9 -5 -16
-15z"/>
<path d="M2979 6093 c-4 -24 -3 -123 1 -123 17 0 31 46 25 81 -6 35 -23 62
-26 42z"/>
<path d="M1752 6060 c0 -19 2 -27 5 -17 2 9 2 25 0 35 -3 9 -5 1 -5 -18z"/>
<path d="M1831 6080 c0 -3 4 -13 8 -23 6 -17 8 -17 18 5 9 20 8 24 -8 24 -11
0 -19 -3 -18 -6z"/>
<path d="M3036 6028 c3 -24 -5 -45 -33 -85 -20 -29 -40 -53 -45 -53 -4 0 -8
-7 -8 -15 0 -19 45 -20 66 -2 63 52 78 100 49 154 -23 42 -33 42 -29 1z"/>
<path d="M1621 5958 c0 -18 3 -27 6 -20 2 6 11 12 20 12 20 0 12 34 -10 38
-13 3 -17 -3 -16 -30z m29 12 c0 -5 -4 -10 -10 -10 -5 0 -10 5 -10 10 0 6 5
10 10 10 6 0 10 -4 10 -10z"/>
<path d="M1680 5958 c0 -22 3 -29 9 -19 7 11 11 10 19 -5 8 -14 10 -11 8 17
-1 23 -7 35 -19 37 -13 3 -17 -4 -17 -30z m30 12 c0 -5 -4 -10 -10 -10 -5 0
-10 5 -10 10 0 6 5 10 10 10 6 0 10 -4 10 -10z"/>
<path d="M1737 5970 c-3 -10 1 -27 8 -37 13 -17 15 -17 30 -2 11 11 15 24 10
38 -8 26 -41 28 -48 1z m40 -6 c8 -22 -15 -44 -26 -25 -10 16 -4 41 10 41 5 0
12 -7 16 -16z"/>
<path d="M1810 5971 c0 -12 6 -21 16 -21 8 0 12 -5 9 -10 -4 -6 -11 -8 -16 -5
-5 4 -9 1 -9 -5 0 -6 8 -10 18 -8 11 2 17 13 17 33 0 20 -6 31 -17 33 -13 2
-18 -3 -18 -17z m30 5 c0 -3 -4 -8 -10 -11 -5 -3 -10 -1 -10 4 0 6 5 11 10 11
6 0 10 -2 10 -4z"/>
<path d="M1872 5960 c0 -19 2 -27 5 -17 2 9 2 25 0 35 -3 9 -5 1 -5 -18z"/>
<path d="M1907 5983 c-12 -11 -7 -40 9 -53 21 -18 49 9 39 39 -6 20 -34 28
-48 14z m36 -16 c3 -8 1 -20 -4 -28 -11 -19 -34 3 -26 25 8 20 23 21 30 3z"/>
<path d="M1976 5982 c7 -4 14 -18 16 -32 3 -23 4 -22 9 8 5 27 3 32 -15 32
-13 0 -17 -3 -10 -8z"/>
<path d="M2077 5983 c-4 -3 -7 -17 -7 -30 0 -27 26 -41 43 -23 9 9 8 11 -8 8
-15 -2 -21 3 -23 21 -3 20 0 23 17 18 12 -3 19 -1 15 4 -6 11 -28 12 -37 2z"/>
<path d="M2030 5955 c0 -14 3 -25 8 -25 4 0 7 11 7 25 0 14 -3 25 -7 25 -5 0
-8 -11 -8 -25z"/>
<path d="M1816 5881 c-4 -6 0 -11 9 -11 9 0 13 -5 10 -10 -4 -6 -11 -8 -16 -5
-5 4 -9 1 -9 -4 0 -14 27 -14 36 0 3 6 0 18 -9 26 -10 10 -17 11 -21 4z"/>
<path d="M1625 5869 c-4 -6 1 -17 11 -24 18 -14 18 -14 0 -15 -15 0 -17 -3 -9
-11 6 -6 16 -8 22 -5 17 11 13 36 -6 43 -15 6 -15 7 3 14 16 6 16 8 2 8 -9 1
-20 -4 -23 -10z"/>
<path d="M1681 5853 c0 -17 4 -35 9 -38 17 -11 40 15 39 44 l-2 26 -4 -27 c-2
-16 -10 -28 -18 -28 -8 0 -16 12 -18 28 -4 26 -4 25 -6 -5z"/>
<path d="M1748 5850 c-3 -16 -3 -30 -1 -30 13 0 44 40 38 49 -12 21 -33 11
-37 -19z m32 16 c0 -3 -4 -8 -10 -11 -5 -3 -10 -1 -10 4 0 6 5 11 10 11 6 0
10 -2 10 -4z"/>
<path d="M1862 5849 c2 -23 9 -35 21 -37 9 -2 17 1 17 7 0 6 -7 11 -16 11 -11
0 -13 6 -9 19 3 11 1 22 -5 26 -8 5 -10 -4 -8 -26z"/>
<path d="M1922 5848 c2 -22 9 -34 21 -36 9 -2 17 2 17 8 0 6 -4 9 -9 5 -5 -3
-12 -1 -16 5 -3 5 1 10 9 10 9 0 16 5 16 11 0 5 -4 8 -9 4 -5 -3 -12 -1 -15 4
-4 5 2 12 11 14 13 3 12 5 -5 6 -20 1 -23 -3 -20 -31z"/>
<path d="M1991 5850 c0 -29 1 -32 10 -17 7 11 7 23 0 35 -9 14 -10 11 -10 -18z"/>
<path d="M2025 5854 c-9 -14 -14 -29 -10 -32 3 -4 10 0 14 7 7 11 10 11 14 0
3 -8 6 1 6 19 1 39 -2 40 -24 6z"/>
<path d="M2070 5845 c0 -28 4 -35 20 -35 25 0 26 17 3 23 -17 4 -17 5 0 6 9 0
17 6 17 11 0 6 -8 10 -17 11 -15 0 -15 2 2 9 19 8 19 9 -2 9 -20 1 -23 -4 -23
-34z"/>
<path d="M2141 5849 c0 -26 2 -29 8 -15 7 18 8 18 14 3 11 -29 27 -19 26 16
-1 18 -3 24 -6 14 -5 -18 -6 -18 -24 -1 -18 17 -19 16 -18 -17z"/>
<path d="M2218 5850 c2 -16 8 -30 12 -30 4 0 10 14 12 30 4 23 1 30 -12 30
-13 0 -16 -7 -12 -30z"/>
<path d="M2275 5870 c-8 -14 3 -30 21 -30 8 0 13 -4 9 -10 -3 -5 -13 -6 -23
-3 -13 5 -15 3 -5 -7 6 -7 19 -10 27 -7 20 8 21 37 2 37 -8 0 -18 5 -22 11 -4
8 1 9 16 4 15 -5 20 -4 16 4 -9 14 -33 14 -41 1z"/>
<path d="M2970 5775 c-22 -13 -23 -14 -5 -15 17 0 17 -2 5 -10 -12 -8 -10 -10
10 -10 14 0 36 12 49 25 l23 25 -28 0 c-16 -1 -40 -7 -54 -15z"/>
<path d="M7895 8753 c-16 -3 -34 -9 -40 -15 -7 -7 3 -9 33 -5 24 3 40 1 36 -4
-3 -5 -1 -9 4 -9 6 0 13 7 16 16 10 27 14 26 -49 17z"/>
<path d="M7950 8731 c0 -5 5 -11 12 -13 6 -2 9 -12 5 -21 -5 -12 -14 -15 -43
-10 -23 4 -35 2 -31 -4 8 -13 89 -15 107 -2 13 9 13 10 -1 6 -12 -4 -15 -1
-12 11 2 10 -5 22 -17 30 -11 7 -20 8 -20 3z"/>
<path d="M7850 8716 c0 -2 7 -7 16 -10 8 -3 12 -2 9 4 -6 10 -25 14 -25 6z"/>
<path d="M7975 8655 l-30 -14 28 -1 c15 0 27 4 27 9 0 5 8 12 18 14 11 3 12 5
2 5 -8 0 -28 -6 -45 -13z"/>
<path d="M7288 8613 c7 -3 16 -2 19 1 4 3 -2 6 -13 5 -11 0 -14 -3 -6 -6z"/>
<path d="M7276 8588 c5 -8 2 -9 -9 -5 -10 3 -17 2 -17 -3 0 -4 -16 -4 -36 2
-25 7 -40 6 -47 -1 -11 -11 -4 -12 78 -15 11 -1 25 -4 32 -9 6 -4 14 -3 18 3
3 5 15 10 26 10 23 0 21 21 -2 28 -11 3 -11 2 1 -7 13 -9 13 -11 -2 -11 -9 0
-20 5 -23 10 -3 6 -11 10 -16 10 -6 0 -7 -5 -3 -12z"/>
<path d="M7325 8520 c3 -5 8 -10 11 -10 2 0 4 5 4 10 0 6 -5 10 -11 10 -5 0
-7 -4 -4 -10z"/>
<path d="M7350 8510 c0 -5 5 -10 11 -10 5 0 7 5 4 10 -3 6 -8 10 -11 10 -2 0
-4 -4 -4 -10z"/>
<path d="M7098 8409 c-7 -4 -1 -9 13 -11 20 -2 23 -8 21 -30 -2 -16 2 -28 9
-28 6 0 9 7 5 15 -3 8 -1 15 4 15 16 0 11 -37 -6 -44 -22 -8 -26 -8 -19 3 9
16 -30 32 -43 19 -15 -15 -63 -19 -78 -7 -8 6 -19 3 -35 -12 -13 -11 -18 -17
-10 -13 16 8 8 -9 -17 -39 -8 -9 -12 -20 -9 -24 4 -3 7 -1 7 5 0 9 6 9 25 0
31 -14 47 -1 21 18 -12 8 -15 14 -7 14 8 0 11 8 8 20 -7 28 7 33 28 10 22 -24
35 -26 35 -3 0 13 3 14 12 5 9 -9 8 -15 -8 -27 -23 -17 -35 -19 -31 -4 1 6 -4
14 -12 17 -8 3 -11 0 -7 -7 4 -6 1 -11 -6 -11 -10 0 -10 -2 1 -9 8 -5 11 -16
8 -25 -5 -12 0 -16 15 -16 17 0 19 -3 10 -12 -7 -7 -15 -8 -24 -1 -7 5 -21 13
-31 16 -15 6 -17 3 -11 -16 17 -55 17 -53 5 -37 -8 12 -11 12 -11 1 0 -8 -6
-11 -16 -7 -9 4 -13 2 -8 -5 4 -6 0 -15 -7 -20 -10 -6 -10 -9 -2 -9 7 0 22
-10 34 -22 12 -13 19 -18 15 -11 -8 15 13 28 26 15 6 -6 4 -15 -6 -25 -25 -24
-19 -28 14 -9 16 9 30 20 30 25 0 4 4 7 9 7 5 0 7 -9 4 -20 -5 -18 -15 -24
-35 -21 -5 0 -8 -5 -8 -12 0 -7 -16 -21 -35 -30 -19 -9 -35 -23 -35 -32 0 -18
5 -19 31 -4 22 11 63 3 54 -12 -9 -14 38 -29 53 -17 8 7 12 6 12 -3 0 -12 2
-12 9 0 6 10 12 6 21 -15 12 -27 15 -29 66 -26 30 2 67 0 82 -5 38 -13 67 -6
51 13 -7 9 -8 14 -1 14 6 0 18 -10 26 -22 l16 -22 0 26 c0 25 2 26 42 21 32
-5 44 -2 54 12 9 12 22 16 44 13 26 -4 31 -2 27 12 -3 13 1 16 17 13 17 -4 18
-3 6 6 -19 14 -5 14 21 0 13 -6 25 -7 32 -1 11 9 28 12 70 13 12 0 17 5 13 14
-3 8 -2 14 2 14 19 -3 25 2 12 11 -11 7 -3 10 28 10 26 0 41 4 37 10 -3 6 0
10 7 10 9 1 7 5 -4 14 -27 20 -21 29 15 22 23 -4 28 -3 17 4 -12 7 -12 10 -1
10 7 0 11 6 8 14 -4 11 -1 13 10 9 12 -5 15 -2 10 10 -3 9 -2 19 3 22 6 4 5
11 -2 19 -11 11 -17 11 -35 -1 -13 -9 -30 -13 -38 -9 -9 3 -18 -1 -22 -10 -3
-9 -13 -14 -24 -11 -10 3 -17 0 -16 -6 1 -6 -11 -11 -28 -12 -50 -3 -55 -5
-55 -16 0 -8 6 -7 18 2 15 13 16 12 4 -3 -8 -10 -17 -17 -20 -16 -4 1 -16 -3
-26 -7 -12 -5 -21 -5 -23 2 -2 5 -11 19 -19 29 -14 18 -14 18 -4 -5 14 -28 -4
-57 -20 -31 -8 13 -11 13 -22 1 -10 -10 -10 -12 0 -7 18 10 15 1 -5 -15 -14
-12 -16 -12 -8 0 6 11 4 13 -8 8 -22 -8 -21 1 1 27 16 19 15 18 -14 -2 -23
-16 -34 -18 -42 -10 -9 9 -12 9 -12 0 0 -7 -6 -12 -14 -12 -8 0 -17 -6 -19
-12 -4 -9 -6 -8 -6 3 -1 8 5 21 12 29 10 12 9 12 -6 0 -15 -11 -20 -11 -30 0
-9 10 -9 11 0 6 8 -4 11 1 10 14 -1 11 -5 20 -10 20 -5 0 -4 7 3 15 11 13 8
20 -14 40 -15 14 -32 23 -37 20 -5 -4 -9 -2 -9 4 0 5 5 13 10 16 6 3 10 1 10
-6 0 -7 2 -10 5 -7 3 3 1 17 -4 31 -7 18 -7 27 1 29 6 2 4 11 -6 21 -10 9 -18
25 -19 35 0 10 -6 19 -12 19 -5 1 -30 4 -54 8 -27 5 -41 3 -38 -2 4 -6 -4 -8
-18 -5 -14 2 -22 8 -20 13 6 9 -31 8 -47 -2z m137 -29 c3 -5 2 -10 -4 -10 -5
0 -13 5 -16 10 -3 6 -2 10 4 10 5 0 13 -4 16 -10z m-45 -30 c0 -5 -2 -10 -4
-10 -3 0 -8 5 -11 10 -3 6 -1 10 4 10 6 0 11 -4 11 -10z m-106 -69 c3 -5 -1
-14 -9 -21 -11 -9 -14 -8 -12 9 1 22 12 28 21 12z m-37 -96 c0 -8 -7 -15 -15
-15 -12 0 -12 3 -2 15 7 8 13 15 15 15 1 0 2 -7 2 -15z m60 -45 c3 -22 -22
-18 -31 5 -3 10 0 12 11 8 12 -5 14 -3 8 8 -4 8 -4 11 0 6 5 -4 10 -16 12 -27z
m-140 14 c-3 -3 -12 -4 -19 -1 -8 3 -5 6 6 6 11 1 17 -2 13 -5z m66 -10 c-6
-16 -25 -14 -30 2 -2 5 6 10 16 11 14 1 18 -3 14 -13z m113 -6 c4 -7 3 -8 -4
-4 -7 4 -12 2 -12 -5 0 -7 -3 -10 -6 -6 -6 5 3 27 11 27 2 0 7 -5 11 -12z
m284 -28 c0 -5 -4 -10 -10 -10 -5 0 -10 5 -10 10 0 6 5 10 10 10 6 0 10 -4 10
-10z m-350 -20 c0 -5 -2 -10 -4 -10 -3 0 -8 5 -11 10 -3 6 -1 10 4 10 6 0 11
-4 11 -10z m579 -41 c-16 -10 -23 -4 -14 10 3 6 11 8 17 5 6 -4 5 -9 -3 -15z
m-594 -49 c-3 -5 -11 -10 -16 -10 -6 0 -7 5 -4 10 3 6 11 10 16 10 6 0 7 -4 4
-10z"/>
<path d="M7055 8390 c3 -5 14 -10 23 -10 15 0 15 2 2 10 -20 13 -33 13 -25 0z"/>
<path d="M6876 8328 c-8 -31 -8 -43 1 -34 8 8 16 56 10 56 -3 0 -7 -10 -11
-22z"/>
<path d="M6906 8324 c-3 -8 1 -14 9 -14 20 0 28 17 11 23 -8 3 -17 -1 -20 -9z"/>
<path d="M6910 8299 c-19 -8 -22 -12 -10 -19 15 -9 50 4 50 20 0 12 -7 12 -40
-1z"/>
<path d="M6941 8214 c0 -11 3 -14 6 -6 3 7 2 16 -1 19 -3 4 -6 -2 -5 -13z"/>
<path d="M6935 8120 c-3 -5 -1 -10 4 -10 6 0 11 5 11 10 0 6 -2 10 -4 10 -3 0
-8 -4 -11 -10z"/>
<path d="M9750 8101 c0 -11 -6 -26 -14 -34 -11 -11 -12 -17 -4 -25 7 -7 13
-41 14 -77 1 -37 5 -69 8 -72 3 -4 6 4 6 16 0 20 4 22 28 17 15 -4 48 -11 74
-15 25 -4 61 -18 80 -32 63 -48 66 -46 31 21 -7 14 -13 34 -13 45 0 36 -12 65
-26 65 -17 0 -112 48 -119 61 -3 4 -19 18 -35 29 -30 21 -30 21 -30 1z"/>
<path d="M9608 8073 c7 -3 16 -2 19 1 4 3 -2 6 -13 5 -11 0 -14 -3 -6 -6z"/>
<path d="M9080 7949 c0 -15 7 -33 16 -40 15 -12 16 -11 9 11 -14 46 -24 58
-25 29z"/>
<path d="M9028 7903 c5 -21 7 -23 10 -9 2 10 0 22 -6 28 -6 6 -7 0 -4 -19z"/>
<path d="M9142 7900 c0 -14 2 -19 5 -12 2 6 2 18 0 25 -3 6 -5 1 -5 -13z"/>
<path d="M9673 7853 c0 -58 18 -113 38 -113 6 0 9 6 6 13 -4 10 2 13 21 9 l26
-5 -22 23 c-12 13 -22 32 -22 42 0 11 -11 35 -24 54 l-23 34 0 -57z"/>
<path d="M9032 7840 c0 -19 2 -27 5 -17 2 9 2 25 0 35 -3 9 -5 1 -5 -18z"/>
<path d="M9597 7545 c-20 -41 -13 -67 17 -63 23 3 32 33 22 74 -9 33 -19 30
-39 -11z"/>
<path d="M9231 7474 c0 -11 3 -14 6 -6 3 7 2 16 -1 19 -3 4 -6 -2 -5 -13z"/>
<path d="M9161 7443 c0 -16 4 -37 8 -48 7 -16 9 -14 14 13 7 34 1 62 -14 62
-5 0 -9 -12 -8 -27z"/>
<path d="M6448 7056 c-21 -8 -49 -21 -64 -30 -33 -23 -29 -57 9 -67 22 -6 33
-2 53 18 14 13 31 22 39 19 7 -2 15 0 18 7 5 16 64 -10 83 -37 13 -19 23 -21
90 -18 48 2 81 -2 91 -9 10 -9 17 -9 25 -1 9 9 9 12 -1 12 -14 0 -61 45 -61
59 0 4 -22 20 -49 34 -41 23 -61 27 -122 27 -41 -1 -91 -7 -111 -14z"/>
<path d="M6485 6710 c3 -5 8 -10 11 -10 2 0 4 5 4 10 0 6 -5 10 -11 10 -5 0
-7 -4 -4 -10z"/>
<path d="M6796 6092 c-3 -5 1 -9 9 -9 8 0 12 4 9 9 -3 4 -7 8 -9 8 -2 0 -6 -4
-9 -8z"/>
<path d="M6577 5425 c3 -8 9 -12 14 -9 12 7 11 11 -5 17 -10 4 -13 1 -9 -8z"/>
<path d="M1880 5160 c0 -5 5 -10 10 -10 6 0 10 5 10 10 0 6 -4 10 -10 10 -5 0
-10 -4 -10 -10z"/>
<path d="M1958 5153 c7 -3 16 -2 19 1 4 3 -2 6 -13 5 -11 0 -14 -3 -6 -6z"/>
<path d="M2228 5153 c7 -3 16 -2 19 1 4 3 -2 6 -13 5 -11 0 -14 -3 -6 -6z"/>
<path d="M1260 5140 c0 -5 9 -10 21 -10 11 0 17 5 14 10 -3 6 -13 10 -21 10
-8 0 -14 -4 -14 -10z"/>
<path d="M1150 5129 c0 -5 5 -7 10 -4 6 3 10 8 10 11 0 2 -4 4 -10 4 -5 0 -10
-5 -10 -11z"/>
<path d="M1851 5111 c-9 -6 -4 -10 18 -13 21 -3 31 0 31 9 0 15 -28 17 -49 4z"/>
<path d="M1765 5090 c-3 -5 -1 -10 4 -10 6 0 11 5 11 10 0 6 -2 10 -4 10 -3 0
-8 -4 -11 -10z"/>
<path d="M2516 5052 c-3 -5 0 -9 7 -9 7 0 27 -3 45 -7 27 -6 32 -5 32 11 0 15
-2 16 -11 3 -8 -11 -12 -12 -16 -2 -5 13 -49 17 -57 4z"/>
<path d="M3866 5053 c-7 -7 13 -33 25 -33 5 0 9 6 9 14 0 15 -24 28 -34 19z"/>
<path d="M9770 5030 c0 -5 5 -10 10 -10 6 0 10 5 10 10 0 6 -4 10 -10 10 -5 0
-10 -4 -10 -10z"/>
<path d="M1787 5016 c-3 -8 -2 -18 3 -21 13 -8 20 9 11 24 -6 10 -10 9 -14 -3z"/>
<path d="M3033 4955 c-3 -9 -3 -18 0 -21 9 -9 27 6 27 22 0 19 -19 18 -27 -1z"/>
<path d="M749 4874 c-10 -13 -10 -17 2 -25 8 -5 19 -9 26 -9 6 0 18 -2 26 -5
10 -5 13 1 9 25 -3 23 -9 30 -27 30 -12 0 -28 -7 -36 -16z"/>
<path d="M865 4860 c3 -5 11 -10 16 -10 6 0 7 5 4 10 -3 6 -11 10 -16 10 -6 0
-7 -4 -4 -10z"/>
<path d="M3561 4844 c13 -16 39 -19 39 -5 0 5 -11 11 -25 13 -20 4 -23 3 -14
-8z"/>
<path d="M910 4821 c0 -9 24 -21 42 -21 6 0 6 6 -2 15 -14 16 -40 20 -40 6z"/>
<path d="M1080 4800 c-18 -12 -2 -12 25 0 13 6 15 9 5 9 -8 0 -22 -4 -30 -9z"/>
<path d="M1210 4773 c0 -5 11 -9 25 -9 14 -1 25 2 25 7 0 5 -11 9 -25 9 -14 0
-25 -3 -25 -7z"/>
<path d="M1280 4769 c0 -7 11 -8 30 -4 19 4 36 2 45 -5 17 -14 67 -9 73 8 3 9
-16 12 -72 12 -48 0 -76 -4 -76 -11z"/>
<path d="M753 4763 c9 -2 25 -2 35 0 9 3 1 5 -18 5 -19 0 -27 -2 -17 -5z"/>
<path d="M2360 4760 c0 -5 5 -10 10 -10 6 0 10 5 10 10 0 6 -4 10 -10 10 -5 0
-10 -4 -10 -10z"/>
<path d="M6415 4742 c3 -31 16 -60 29 -65 10 -4 12 1 8 15 -2 11 -11 22 -18
25 -7 2 -10 11 -8 18 3 7 1 15 -4 19 -5 3 -8 -3 -7 -12z"/>
<path d="M1405 4709 c-4 -6 -5 -12 -2 -15 7 -7 37 7 37 17 0 13 -27 11 -35 -2z"/>
<path d="M1173 4703 c-25 -10 -12 -23 22 -23 36 0 47 13 19 24 -18 7 -23 7
-41 -1z"/>
<path d="M837 4683 c-4 -3 -7 -11 -7 -17 0 -6 5 -5 12 2 6 6 9 14 7 17 -3 3
-9 2 -12 -2z"/>
<path d="M1560 4675 c0 -16 27 -32 37 -21 7 7 -16 36 -28 36 -5 0 -9 -7 -9
-15z"/>
<path d="M1475 4650 c-4 -6 5 -10 20 -10 15 0 24 4 20 10 -3 6 -12 10 -20 10
-8 0 -17 -4 -20 -10z"/>
<path d="M1660 4650 c0 -5 9 -10 19 -10 11 0 21 -6 24 -12 4 -10 7 -10 17 -1
11 10 8 14 -14 23 -34 13 -46 13 -46 0z"/>
<path d="M2748 4653 c6 -2 10 -9 7 -13 -3 -5 -1 -11 5 -15 5 -3 10 3 10 14 0
14 -6 21 -17 20 -11 0 -13 -3 -5 -6z"/>
<path d="M1025 4640 c3 -5 8 -10 11 -10 2 0 4 5 4 10 0 6 -5 10 -11 10 -5 0
-7 -4 -4 -10z"/>
<path d="M2705 4640 c-3 -5 3 -10 15 -10 12 0 18 5 15 10 -3 6 -10 10 -15 10
-5 0 -12 -4 -15 -10z"/>
<path d="M2075 4600 c3 -5 16 -10 28 -10 18 0 19 2 7 10 -20 13 -43 13 -35 0z"/>
<path d="M2614 4589 c-10 -16 11 -32 34 -24 13 4 19 12 15 21 -6 16 -39 19
-49 3z"/>
<path d="M2156 4576 c7 -19 38 -22 32 -3 -3 6 -12 13 -21 15 -12 2 -15 -1 -11
-12z"/>
<path d="M2458 4569 c-49 -25 -48 -39 1 -35 45 4 64 13 55 28 -4 6 0 14 7 19
29 18 -26 8 -63 -12z"/>
<path d="M2965 4570 c3 -5 8 -10 11 -10 2 0 4 5 4 10 0 6 -5 10 -11 10 -5 0
-7 -4 -4 -10z"/>
<path d="M5590 4564 c-14 -8 -39 -13 -57 -10 l-33 5 0 -85 0 -84 138 0 137 0
-60 58 c-33 31 -68 74 -78 95 -10 20 -19 37 -20 36 -1 -1 -13 -7 -27 -15z"/>
<path d="M3615 4500 c-3 -5 -1 -10 4 -10 6 0 11 5 11 10 0 6 -2 10 -4 10 -3 0
-8 -4 -11 -10z"/>
<path d="M630 4470 c0 -5 5 -10 10 -10 6 0 10 5 10 10 0 6 -4 10 -10 10 -5 0
-10 -4 -10 -10z"/>
<path d="M2110 4446 c19 -17 106 -31 114 -17 7 11 -55 31 -99 31 -25 0 -27 -2
-15 -14z"/>
<path d="M4030 4445 c0 -8 7 -15 15 -15 8 0 15 4 15 9 0 5 -7 11 -15 15 -9 3
-15 0 -15 -9z"/>
<path d="M890 4415 c-7 -9 -10 -18 -6 -22 3 -4 12 2 20 12 12 17 17 18 40 7
36 -16 45 -15 22 3 -26 19 -60 19 -76 0z"/>
<path d="M3495 4421 c-3 -5 -1 -12 4 -15 5 -3 11 1 15 9 6 16 -9 21 -19 6z"/>
<path d="M1235 4400 c3 -5 16 -10 28 -10 18 0 19 2 7 10 -20 13 -43 13 -35 0z"/>
<path d="M2870 4400 c0 -5 12 -10 28 -9 24 0 25 1 7 9 -27 12 -35 12 -35 0z"/>
<path d="M1308 4393 c12 -2 32 -2 45 0 12 2 2 4 -23 4 -25 0 -35 -2 -22 -4z"/>
<path d="M3531 3794 c-38 -27 -25 -65 31 -91 53 -25 62 -35 53 -63 -15 -46
-78 -31 -94 23 -9 32 -9 32 -10 -12 -1 -24 2 -42 5 -38 3 3 18 1 32 -4 34 -13
80 6 88 37 9 37 -4 61 -44 77 -51 20 -69 42 -52 62 24 29 66 11 83 -35 3 -8 6
1 6 20 1 34 -1 35 -37 37 -22 1 -48 -4 -61 -13z"/>
<path d="M3698 3801 c-21 -5 -25 -9 -18 -21 5 -8 10 -45 10 -81 0 -76 12 -93
65 -93 53 0 65 17 65 95 0 47 5 72 15 83 21 21 19 22 -21 18 -29 -4 -33 -7
-20 -14 12 -7 16 -24 16 -76 0 -40 -5 -73 -12 -80 -19 -19 -66 -15 -78 7 -15
28 -13 148 3 154 21 8 3 13 -25 8z"/>
<path d="M3870 3798 c0 -4 5 -8 10 -8 15 0 13 -167 -2 -173 -7 -3 5 -5 27 -5
22 0 34 2 28 5 -7 2 -13 20 -13 38 0 30 4 34 33 40 44 10 57 22 57 56 0 30
-23 50 -57 48 -15 0 -14 -2 5 -9 29 -12 31 -64 3 -80 -37 -19 -43 -13 -39 39
3 47 2 50 -24 54 -16 2 -28 0 -28 -5z"/>
<path d="M4040 3799 c0 -5 5 -9 10 -9 15 0 13 -167 -2 -173 -7 -3 5 -5 27 -5
22 0 34 2 28 5 -7 2 -13 20 -13 38 0 30 4 34 33 40 44 10 57 22 57 56 0 30 -6
36 -50 49 -36 10 -40 3 -5 -10 46 -17 26 -90 -24 -90 -6 0 -11 21 -11 49 0 44
-2 49 -25 53 -14 3 -25 1 -25 -3z"/>
<path d="M4390 3799 c0 -4 5 -11 10 -14 6 -3 10 -39 10 -80 0 -60 -3 -76 -17
-84 -14 -8 2 -10 59 -11 l76 0 7 31 c4 17 4 33 1 36 -3 4 -6 1 -6 -5 0 -21
-39 -52 -64 -52 -21 0 -24 6 -28 41 -4 49 9 60 34 29 l18 -22 -1 48 c0 40 -2
45 -9 27 -14 -35 -40 -29 -41 10 -1 17 -1 35 -1 38 1 4 -10 9 -23 12 -14 2
-25 1 -25 -4z"/>
<path d="M4743 3802 c-15 -2 -26 -15 -34 -40 -7 -20 -19 -53 -27 -72 l-15 -35
-26 70 c-22 58 -31 71 -51 73 -20 3 -23 1 -12 -9 18 -19 16 -129 -4 -157 -15
-21 -14 -22 17 -22 26 0 30 3 21 12 -7 7 -12 38 -11 73 l0 60 26 -72 c15 -40
29 -70 32 -67 3 3 18 36 33 72 l27 67 0 -67 c1 -44 -3 -68 -11 -71 -7 -3 5 -5
27 -5 22 0 34 2 28 5 -9 3 -13 31 -13 88 0 58 4 85 13 88 19 7 5 13 -20 9z"/>
<path d="M4800 3798 c0 -4 5 -8 10 -8 15 0 13 -167 -2 -173 -7 -3 19 -6 59 -6
77 -1 77 -1 87 43 l7 29 -26 -32 c-19 -22 -36 -31 -56 -31 -28 0 -29 2 -29 45
0 48 9 55 34 29 15 -14 16 -12 16 23 -1 31 -3 35 -11 21 -5 -10 -17 -18 -26
-18 -12 0 -14 9 -11 39 3 37 1 40 -24 43 -16 3 -28 1 -28 -4z"/>
<path d="M4980 3799 c0 -5 5 -9 10 -9 15 0 13 -153 -2 -168 -9 -9 -4 -12 23
-12 24 0 30 3 20 9 -16 10 -29 131 -15 131 5 0 32 -32 59 -72 l50 -71 5 87 c4
62 9 89 20 96 11 7 6 10 -20 10 -22 0 -30 -3 -22 -9 9 -5 12 -26 10 -66 l-3
-58 -45 66 c-28 40 -54 67 -67 70 -13 2 -23 0 -23 -4z"/>
<path d="M5189 3782 c-15 -39 -10 -46 12 -18 38 48 49 35 49 -58 0 -72 -3 -85
-17 -89 -10 -3 2 -5 27 -5 25 0 39 2 33 5 -9 3 -13 31 -13 89 0 67 3 84 15 84
8 0 22 -11 31 -25 21 -32 27 -27 14 11 -10 28 -12 29 -76 29 -60 0 -67 -2 -75
-23z"/>
<path d="M5401 3794 c-38 -27 -25 -65 31 -91 25 -12 49 -27 53 -33 10 -16 -4
-48 -24 -55 -29 -9 -48 4 -65 43 l-15 37 0 -44 c-1 -24 2 -42 5 -38 3 3 18 1
34 -5 21 -7 36 -6 59 7 26 13 31 22 31 50 0 32 -4 37 -47 58 -38 18 -48 27
-48 47 0 16 6 26 18 28 21 4 57 -24 57 -45 0 -7 4 -13 8 -13 4 0 6 15 4 33 -3
29 -7 32 -41 34 -21 1 -47 -5 -60 -13z"/>
<path d="M5909 3791 c-34 -27 -20 -61 38 -91 57 -30 69 -63 29 -81 -30 -14
-52 0 -72 46 l-13 30 -1 -41 c0 -40 1 -42 37 -47 55 -9 87 10 91 55 3 36 1 38
-48 63 -41 21 -51 30 -48 48 2 12 11 23 21 25 21 4 57 -24 57 -45 0 -7 5 -13
11 -13 6 0 8 7 5 16 -3 9 -6 23 -6 32 0 25 -72 27 -101 3z"/>
<path d="M6177 3802 c-15 -2 -25 -8 -21 -14 3 -5 -3 -23 -15 -38 l-21 -29 32
-55 c26 -44 37 -56 57 -56 22 0 23 2 9 13 -8 6 -28 36 -44 65 l-29 53 33 30
c38 34 38 36 -1 31z"/>
<path d="M6340 3803 c0 -2 7 -12 16 -20 21 -22 16 -149 -6 -163 -11 -7 -6 -10
19 -10 28 0 31 2 22 14 -7 8 -11 38 -9 72 l3 57 49 -72 c27 -39 52 -71 55 -71
3 0 8 39 9 87 2 49 8 91 14 94 5 4 -4 8 -21 11 -17 2 -31 1 -31 -4 0 -4 4 -8
9 -8 5 0 11 -27 13 -60 1 -33 1 -60 -2 -60 -3 0 -25 29 -50 64 -27 40 -54 66
-67 69 -13 2 -23 2 -23 0z"/>
<path d="M6598 3795 c-36 -20 -48 -44 -48 -94 0 -55 34 -95 81 -94 82 2 84 3
86 39 1 19 -3 32 -8 29 -5 -4 -9 -12 -9 -19 0 -16 -18 -31 -47 -40 -35 -11
-73 32 -73 83 0 22 5 51 12 65 22 49 81 45 103 -7 l14 -32 1 36 c0 22 -5 36
-12 36 -7 1 -26 4 -43 7 -19 4 -40 0 -57 -9z"/>
<path d="M6822 3797 c-9 -11 -7 -23 8 -55 25 -52 25 -52 -6 -52 -17 0 -24 4
-21 13 12 32 18 57 13 57 -2 0 -12 -22 -21 -49 -9 -28 -25 -61 -36 -75 l-20
-26 31 0 c26 0 30 3 22 13 -6 7 -9 23 -5 35 4 17 13 22 39 22 27 0 35 -5 40
-24 3 -14 3 -30 -1 -35 -4 -7 8 -11 32 -11 22 0 33 4 26 8 -7 4 -30 49 -51
100 -31 74 -41 90 -50 79z"/>
<path d="M6950 3799 c0 -5 5 -9 10 -9 15 0 13 -167 -2 -173 -7 -3 5 -5 27 -5
22 0 34 2 28 5 -8 2 -13 22 -13 45 0 32 3 39 17 36 10 -2 28 -22 41 -46 19
-34 29 -42 50 -41 15 0 21 3 15 6 -7 2 -26 24 -41 47 -28 41 -28 43 -11 55 21
13 25 51 7 69 -7 7 -23 12 -37 11 -26 0 -26 0 -3 -9 44 -18 28 -79 -20 -80
-15 0 -18 9 -18 44 0 39 -3 44 -25 48 -14 3 -25 1 -25 -3z"/>
<path d="M4218 3793 c16 -6 17 -154 0 -171 -9 -9 4 -12 60 -12 51 0 72 4 72
13 0 6 3 23 7 37 6 23 5 23 -21 -7 -18 -21 -37 -33 -53 -33 l-24 0 3 90 3 90
-30 -1 c-16 0 -24 -3 -17 -6z"/>
<path d="M4470 3793 c14 -2 35 -16 48 -31 l22 -27 -11 33 c-10 29 -15 32 -47
31 -27 -1 -30 -3 -12 -6z"/>
<path d="M4897 3789 c18 -5 35 -18 38 -30 10 -29 17 -17 9 15 -5 22 -11 26
-43 25 l-36 -1 32 -9z"/>
<path d="M6068 3714 c3 -64 0 -89 -10 -95 -8 -6 2 -8 27 -8 22 0 34 3 28 6
-16 6 -17 65 -1 81 9 9 9 12 0 12 -16 0 -16 77 1 83 6 3 -1 6 -18 6 l-30 1 3
-86z"/>
<path d="M6258 3714 c3 -64 0 -89 -10 -95 -8 -6 1 -9 27 -9 30 0 36 3 27 12
-17 17 -16 165 1 171 6 3 -1 6 -18 6 l-30 1 3 -86z"/>
<path d="M7148 3793 c8 -3 12 -31 12 -88 0 -57 -4 -85 -12 -88 -7 -3 19 -6 59
-6 77 -1 77 -1 87 43 l7 29 -26 -32 c-19 -22 -36 -31 -56 -31 -28 0 -29 2 -29
45 0 48 9 55 34 29 15 -14 16 -12 16 17 0 26 -3 30 -12 21 -25 -25 -40 -14
-36 28 3 39 3 40 -27 39 -16 0 -24 -3 -17 -6z"/>
<path d="M7237 3789 c18 -5 35 -18 38 -30 10 -29 17 -17 9 15 -5 22 -11 26
-43 25 l-36 -1 32 -9z"/>
<path d="M5688 3713 c-2 -22 -9 -29 -31 -31 -33 -4 -26 -22 9 -22 19 0 24 -5
24 -25 0 -14 5 -25 10 -25 6 0 10 11 10 25 0 20 5 25 25 25 14 0 25 5 25 10 0
6 -11 10 -25 10 -21 0 -25 5 -25 30 0 38 -18 40 -22 3z"/>
<path d="M2690 3311 c0 -6 4 -13 10 -16 6 -3 7 1 4 9 -7 18 -14 21 -14 7z"/>
<path d="M5153 3280 c0 -25 2 -35 4 -22 2 12 2 32 0 45 -2 12 -4 2 -4 -23z"/>
<path d="M5943 3280 c0 -25 2 -35 4 -22 2 12 2 32 0 45 -2 12 -4 2 -4 -23z"/>
<path d="M3210 3290 c0 -5 5 -10 11 -10 5 0 7 5 4 10 -3 6 -8 10 -11 10 -2 0
-4 -4 -4 -10z"/>
<path d="M3360 3276 c0 -14 4 -27 8 -30 5 -3 6 8 4 25 -5 35 -12 38 -12 5z"/>
<path d="M3745 3290 c-3 -5 -1 -10 4 -10 6 0 11 5 11 10 0 6 -2 10 -4 10 -3 0
-8 -4 -11 -10z"/>
<path d="M4730 3281 c0 -25 6 -27 13 -6 4 8 2 17 -3 20 -6 4 -10 -3 -10 -14z"/>
<path d="M5052 3270 c0 -19 2 -27 5 -17 2 9 2 25 0 35 -3 9 -5 1 -5 -18z"/>
<path d="M5405 3290 c-3 -5 -1 -10 4 -10 6 0 11 5 11 10 0 6 -2 10 -4 10 -3 0
-8 -4 -11 -10z"/>
<path d="M6285 3290 c-3 -5 -1 -10 4 -10 6 0 11 5 11 10 0 6 -2 10 -4 10 -3 0
-8 -4 -11 -10z"/>
<path d="M7060 3276 c0 -14 4 -27 8 -30 5 -3 6 8 4 25 -5 35 -12 38 -12 5z"/>
<path d="M2933 3274 c-3 -8 -2 -19 3 -24 5 -5 9 1 9 16 0 28 -3 30 -12 8z"/>
<path d="M3078 3263 c5 -21 7 -23 10 -9 2 10 0 22 -6 28 -6 6 -7 0 -4 -19z"/>
<path d="M3113 3274 c-3 -8 -2 -19 3 -24 5 -5 9 1 9 16 0 28 -3 30 -12 8z"/>
<path d="M3253 3274 c-3 -8 -2 -19 3 -24 5 -5 9 1 9 16 0 28 -3 30 -12 8z"/>
<path d="M3400 3265 c0 -14 2 -25 4 -25 2 0 6 11 8 25 3 14 1 25 -3 25 -5 0
-9 -11 -9 -25z"/>
<path d="M3438 3263 c5 -21 7 -23 10 -9 2 10 0 22 -6 28 -6 6 -7 0 -4 -19z"/>
<path d="M3473 3274 c-3 -8 -2 -19 3 -24 5 -5 9 1 9 16 0 28 -3 30 -12 8z"/>
<path d="M3612 3265 c0 -16 2 -22 5 -12 2 9 2 23 0 30 -3 6 -5 -1 -5 -18z"/>
<path d="M3690 3281 c0 -6 4 -13 10 -16 6 -3 7 1 4 9 -7 18 -14 21 -14 7z"/>
<path d="M3889 3273 c-13 -16 -12 -17 4 -4 9 7 17 15 17 17 0 8 -8 3 -21 -13z"/>
<path d="M3972 3265 c0 -16 2 -22 5 -12 2 9 2 23 0 30 -3 6 -5 -1 -5 -18z"/>
<path d="M4131 3274 c0 -11 3 -14 6 -6 3 7 2 16 -1 19 -3 4 -6 -2 -5 -13z"/>
<path d="M4213 3274 c-3 -8 -2 -19 3 -24 5 -5 9 1 9 16 0 28 -3 30 -12 8z"/>
<path d="M4366 3277 c3 -10 9 -15 12 -12 3 3 0 11 -7 18 -10 9 -11 8 -5 -6z"/>
<path d="M4430 3284 c0 -5 7 -18 15 -28 8 -11 15 -16 15 -10 0 5 -7 18 -15 28
-8 11 -15 16 -15 10z"/>
<path d="M4523 3274 c-3 -8 -2 -19 3 -24 5 -5 9 1 9 16 0 28 -3 30 -12 8z"/>
<path d="M4773 3274 c-3 -8 -2 -19 3 -24 5 -5 9 1 9 16 0 28 -3 30 -12 8z"/>
<path d="M4882 3265 c0 -16 2 -22 5 -12 2 9 2 23 0 30 -3 6 -5 -1 -5 -18z"/>
<path d="M5188 3263 c5 -21 7 -23 10 -9 2 10 0 22 -6 28 -6 6 -7 0 -4 -19z"/>
<path d="M5295 3265 c0 -13 3 -21 8 -18 4 2 7 10 7 18 0 8 -3 16 -7 18 -5 3
-8 -5 -8 -18z"/>
<path d="M5333 3274 c-3 -8 -2 -19 3 -24 5 -5 9 1 9 16 0 28 -3 30 -12 8z"/>
<path d="M5660 3281 c0 -6 4 -13 10 -16 6 -3 7 1 4 9 -7 18 -14 21 -14 7z"/>
<path d="M5825 3265 c0 -13 3 -21 8 -18 4 2 7 10 7 18 0 8 -3 16 -7 18 -5 3
-8 -5 -8 -18z"/>
<path d="M5860 3253 c0 -20 3 -34 6 -30 9 9 11 67 2 67 -4 0 -8 -16 -8 -37z"/>
<path d="M5905 3265 c0 -13 3 -21 8 -18 4 2 7 10 7 18 0 8 -3 16 -7 18 -5 3
-8 -5 -8 -18z"/>
<path d="M5973 3274 c-3 -8 -2 -19 3 -24 5 -5 9 1 9 16 0 28 -3 30 -12 8z"/>
<path d="M6042 3265 c0 -16 2 -22 5 -12 2 9 2 23 0 30 -3 6 -5 -1 -5 -18z"/>
<path d="M6581 3274 c0 -11 3 -14 6 -6 3 7 2 16 -1 19 -3 4 -6 -2 -5 -13z"/>
<path d="M6680 3253 c0 -24 3 -33 9 -25 7 12 4 62 -5 62 -2 0 -4 -17 -4 -37z"/>
<path d="M6803 3274 c-3 -8 -2 -19 3 -24 5 -5 9 1 9 16 0 28 -3 30 -12 8z"/>
<path d="M7025 3265 c0 -13 3 -21 8 -18 4 2 7 10 7 18 0 8 -3 16 -7 18 -5 3
-8 -5 -8 -18z"/>
<path d="M7102 3265 c0 -16 2 -22 5 -12 2 9 2 23 0 30 -3 6 -5 -1 -5 -18z"/>
<path d="M7133 3274 c-3 -8 -2 -19 3 -24 5 -5 9 1 9 16 0 28 -3 30 -12 8z"/>
<path d="M7230 3281 c0 -6 4 -13 10 -16 6 -3 7 1 4 9 -7 18 -14 21 -14 7z"/>
<path d="M7381 3274 c0 -11 3 -14 6 -6 3 7 2 16 -1 19 -3 4 -6 -2 -5 -13z"/>
<path d="M7542 3265 c0 -16 2 -22 5 -12 2 9 2 23 0 30 -3 6 -5 -1 -5 -18z"/>
<path d="M7623 3274 c-3 -8 -2 -19 3 -24 5 -5 9 1 9 16 0 28 -3 30 -12 8z"/>
<path d="M7763 3274 c-3 -8 -2 -19 3 -24 5 -5 9 1 9 16 0 28 -3 30 -12 8z"/>
<path d="M7870 3271 c0 -11 4 -22 9 -25 4 -3 6 6 3 19 -5 30 -12 33 -12 6z"/>
<path d="M7908 3265 c-3 -14 -1 -25 3 -25 5 0 9 11 9 25 0 14 -2 25 -4 25 -2
0 -6 -11 -8 -25z"/>
<path d="M8110 3280 c0 -5 9 -14 20 -20 11 -6 20 -9 20 -8 0 2 -9 11 -20 21
-11 9 -20 13 -20 7z"/>
<path d="M3042 3260 c0 -14 2 -19 5 -12 2 6 2 18 0 25 -3 6 -5 1 -5 -13z"/>
<path d="M4310 3276 c0 -3 9 -10 20 -16 11 -6 20 -8 20 -6 0 3 -9 10 -20 16
-11 6 -20 8 -20 6z"/>
<path d="M4632 3260 c0 -14 2 -19 5 -12 2 6 2 18 0 25 -3 6 -5 1 -5 -13z"/>
<path d="M4952 3260 c0 -14 2 -19 5 -12 2 6 2 18 0 25 -3 6 -5 1 -5 -13z"/>
<path d="M7940 3276 c0 -3 9 -10 20 -16 11 -6 20 -8 20 -6 0 3 -9 10 -20 16
-11 6 -20 8 -20 6z"/>
<path d="M2716 3257 c3 -10 9 -15 12 -12 3 3 0 11 -7 18 -10 9 -11 8 -5 -6z"/>
<path d="M4105 3259 c-4 -6 -5 -12 -2 -15 2 -3 7 2 10 11 7 17 1 20 -8 4z"/>
<path d="M6346 3257 c3 -10 9 -15 12 -12 3 3 0 11 -7 18 -10 9 -11 8 -5 -6z"/>
<path d="M6465 3259 c-4 -6 -5 -12 -2 -15 2 -3 7 2 10 11 7 17 1 20 -8 4z"/>
<path d="M6541 3254 c0 -11 3 -14 6 -6 3 7 2 16 -1 19 -3 4 -6 -2 -5 -13z"/>
<path d="M7515 3259 c-4 -6 -5 -12 -2 -15 2 -3 7 2 10 11 7 17 1 20 -8 4z"/>
<path d="M6420 3250 c0 -5 5 -10 10 -10 6 0 10 5 10 10 0 6 -4 10 -10 10 -5 0
-10 -4 -10 -10z"/>
<path d="M4377 3231 c-4 -17 -3 -21 5 -13 5 5 8 16 6 23 -3 8 -7 3 -11 -10z"/>
<path d="M2903 3075 c0 -22 2 -30 4 -17 2 12 2 30 0 40 -3 9 -5 -1 -4 -23z"/>
<path d="M3863 3075 c0 -22 2 -30 4 -17 2 12 2 30 0 40 -3 9 -5 -1 -4 -23z"/>
<path d="M5660 3095 c-6 -8 -10 -19 -8 -24 1 -6 8 1 15 14 13 28 11 31 -7 10z"/>
<path d="M6843 3075 c0 -22 2 -30 4 -17 2 12 2 30 0 40 -3 9 -5 -1 -4 -23z"/>
<path d="M3605 3080 c3 -5 8 -10 11 -10 2 0 4 5 4 10 0 6 -5 10 -11 10 -5 0
-7 -4 -4 -10z"/>
<path d="M4520 3079 c0 -5 5 -7 10 -4 6 3 10 8 10 11 0 2 -4 4 -10 4 -5 0 -10
-5 -10 -11z"/>
<path d="M4820 3066 c0 -14 4 -27 8 -30 5 -3 6 8 4 25 -5 35 -12 38 -12 5z"/>
<path d="M6130 3066 c0 -14 4 -27 8 -30 5 -3 6 8 4 25 -5 35 -12 38 -12 5z"/>
<path d="M6590 3066 c0 -31 6 -34 13 -6 3 11 1 23 -4 26 -5 3 -9 -6 -9 -20z"/>
<path d="M7505 3080 c3 -5 8 -10 11 -10 2 0 4 5 4 10 0 6 -5 10 -11 10 -5 0
-7 -4 -4 -10z"/>
<path d="M2854 3069 c-3 -6 2 -18 12 -27 17 -16 17 -16 5 0 -7 9 -10 22 -6 28
3 5 4 10 1 10 -3 0 -8 -5 -12 -11z"/>
<path d="M2930 3069 c0 -5 5 -7 10 -4 6 3 10 8 10 11 0 2 -4 4 -10 4 -5 0 -10
-5 -10 -11z"/>
<path d="M3012 3055 c0 -16 2 -22 5 -12 2 9 2 23 0 30 -3 6 -5 -1 -5 -18z"/>
<path d="M3085 3069 c-4 -6 -5 -12 -2 -15 2 -3 7 2 10 11 7 17 1 20 -8 4z"/>
<path d="M3155 3069 c-4 -6 -5 -12 -2 -15 2 -3 7 2 10 11 7 17 1 20 -8 4z"/>
<path d="M3350 3060 c0 -11 2 -20 4 -20 2 0 6 9 9 20 3 11 1 20 -4 20 -5 0 -9
-9 -9 -20z"/>
<path d="M3495 3055 c0 -13 3 -21 8 -18 4 2 7 10 7 18 0 8 -3 16 -7 18 -5 3
-8 -5 -8 -18z"/>
<path d="M3783 3065 c-3 -9 -3 -18 -1 -21 3 -3 8 4 11 16 6 23 -1 27 -10 5z"/>
<path d="M3893 3064 c-3 -8 -2 -19 3 -24 5 -5 9 1 9 16 0 28 -3 30 -12 8z"/>
<path d="M3990 3069 c0 -5 5 -7 10 -4 6 3 10 8 10 11 0 2 -4 4 -10 4 -5 0 -10
-5 -10 -11z"/>
<path d="M4092 3060 c0 -14 2 -19 5 -12 2 6 2 18 0 25 -3 6 -5 1 -5 -13z"/>
<path d="M4343 3073 c-19 -7 -16 -16 10 -32 20 -13 21 -13 9 2 -8 9 -11 21 -7
27 7 11 6 11 -12 3z"/>
<path d="M4422 3060 c0 -14 2 -19 5 -12 2 6 2 18 0 25 -3 6 -5 1 -5 -13z"/>
<path d="M4456 3067 c3 -10 9 -15 12 -12 3 3 0 11 -7 18 -10 9 -11 8 -5 -6z"/>
<path d="M4560 3060 c0 -11 2 -20 4 -20 2 0 6 9 9 20 3 11 1 20 -4 20 -5 0 -9
-9 -9 -20z"/>
<path d="M4645 3055 c0 -13 3 -21 8 -18 4 2 7 10 7 18 0 8 -3 16 -7 18 -5 3
-8 -5 -8 -18z"/>
<path d="M4682 3060 c0 -14 2 -19 5 -12 2 6 2 18 0 25 -3 6 -5 1 -5 -13z"/>
<path d="M4862 3060 c0 -14 2 -19 5 -12 2 6 2 18 0 25 -3 6 -5 1 -5 -13z"/>
<path d="M4930 3061 c0 -11 4 -22 9 -25 4 -3 6 6 3 19 -5 30 -12 33 -12 6z"/>
<path d="M5032 3060 c0 -14 2 -19 5 -12 2 6 2 18 0 25 -3 6 -5 1 -5 -13z"/>
<path d="M5192 3055 c0 -16 2 -22 5 -12 2 9 2 23 0 30 -3 6 -5 -1 -5 -18z"/>
<path d="M5223 3064 c-3 -8 -2 -19 3 -24 5 -5 9 1 9 16 0 28 -3 30 -12 8z"/>
<path d="M5300 3061 c0 -11 4 -22 9 -25 4 -3 6 6 3 19 -5 30 -12 33 -12 6z"/>
<path d="M5403 3064 c-3 -8 -2 -19 3 -24 5 -5 9 1 9 16 0 28 -3 30 -12 8z"/>
<path d="M5840 3061 c0 -11 4 -22 9 -25 4 -3 6 6 3 19 -5 30 -12 33 -12 6z"/>
<path d="M5943 3064 c-3 -8 -2 -19 3 -24 5 -5 9 1 9 16 0 28 -3 30 -12 8z"/>
<path d="M6042 3055 c0 -16 2 -22 5 -12 2 9 2 23 0 30 -3 6 -5 -1 -5 -18z"/>
<path d="M6282 3060 c0 -14 2 -19 5 -12 2 6 2 18 0 25 -3 6 -5 1 -5 -13z"/>
<path d="M6354 3055 c1 -12 9 -21 21 -22 14 -1 15 0 3 3 -9 3 -19 13 -21 22
-3 12 -4 11 -3 -3z"/>
<path d="M6422 3060 c0 -14 2 -19 5 -12 2 6 2 18 0 25 -3 6 -5 1 -5 -13z"/>
<path d="M6632 3060 c0 -14 2 -19 5 -12 2 6 2 18 0 25 -3 6 -5 1 -5 -13z"/>
<path d="M6805 3046 c0 -19 3 -32 8 -29 4 2 7 17 7 34 0 16 -3 29 -7 29 -5 0
-8 -15 -8 -34z"/>
<path d="M6875 3069 c-4 -6 -5 -12 -2 -15 2 -3 7 2 10 11 7 17 1 20 -8 4z"/>
<path d="M6916 3067 c3 -10 9 -15 12 -12 3 3 0 11 -7 18 -10 9 -11 8 -5 -6z"/>
<path d="M7042 3060 c0 -14 2 -19 5 -12 2 6 2 18 0 25 -3 6 -5 1 -5 -13z"/>
<path d="M7070 3060 c0 -11 2 -20 4 -20 2 0 6 9 9 20 3 11 1 20 -4 20 -5 0 -9
-9 -9 -20z"/>
<path d="M7112 3060 c0 -14 2 -19 5 -12 2 6 2 18 0 25 -3 6 -5 1 -5 -13z"/>
<path d="M7143 3065 c-3 -9 -3 -18 -1 -21 3 -3 8 4 11 16 6 23 -1 27 -10 5z"/>
<path d="M7323 3073 c-19 -7 -16 -16 10 -32 20 -13 21 -13 9 2 -8 9 -11 21 -7
27 7 11 6 11 -12 3z"/>
<path d="M7372 3060 c0 -14 2 -19 5 -12 2 6 2 18 0 25 -3 6 -5 1 -5 -13z"/>
<path d="M7400 3060 c0 -11 2 -20 4 -20 2 0 6 9 9 20 3 11 1 20 -4 20 -5 0 -9
-9 -9 -20z"/>
<path d="M7615 3069 c-4 -6 -5 -12 -2 -15 2 -3 7 2 10 11 7 17 1 20 -8 4z"/>
<path d="M7782 3060 c0 -14 2 -19 5 -12 2 6 2 18 0 25 -3 6 -5 1 -5 -13z"/>
<path d="M7850 3061 c0 -11 4 -22 9 -25 4 -3 6 6 3 19 -5 30 -12 33 -12 6z"/>
<path d="M7980 3061 c0 -11 4 -22 9 -25 4 -3 6 6 3 19 -5 30 -12 33 -12 6z"/>
<path d="M8052 3060 c0 -14 2 -19 5 -12 2 6 2 18 0 25 -3 6 -5 1 -5 -13z"/>
<path d="M3530 3056 c0 -8 4 -17 9 -20 5 -4 7 3 4 14 -6 23 -13 26 -13 6z"/>
<path d="M6664 3050 c1 -8 10 -16 21 -17 15 -1 15 0 3 3 -9 3 -19 11 -21 17
-2 7 -3 5 -3 -3z"/>
<path d="M7441 3054 c0 -11 3 -14 6 -6 3 7 2 16 -1 19 -3 4 -6 -2 -5 -13z"/>
<path d="M7920 3063 c0 -15 18 -35 23 -27 3 5 -1 15 -9 22 -8 7 -14 9 -14 5z"/>
<path d="M2805 3034 c0 -25 10 -23 17 4 3 10 0 19 -6 19 -6 0 -11 -10 -11 -23z"/>
<path d="M3312 3045 c-11 -12 -10 -15 3 -15 8 0 15 7 15 15 0 18 -2 18 -18 0z"/>
<path d="M3976 3047 c3 -10 9 -15 12 -12 3 3 0 11 -7 18 -10 9 -11 8 -5 -6z"/>
<path d="M5154 3052 c3 -5 0 -13 -6 -15 -9 -4 -10 -6 -1 -6 17 -1 25 16 12 25
-7 4 -9 3 -5 -4z"/>
<path d="M5550 3045 c0 -8 4 -15 10 -15 5 0 7 7 4 15 -4 8 -8 15 -10 15 -2 0
-4 -7 -4 -15z"/>
<path d="M6094 3052 c3 -5 0 -13 -6 -15 -9 -4 -10 -6 -1 -6 17 -1 25 16 12 25
-7 4 -9 3 -5 -4z"/>
<path d="M6484 3052 c3 -5 0 -13 -6 -15 -9 -4 -10 -6 -1 -6 17 -1 25 16 12 25
-7 4 -9 3 -5 -4z"/>
<path d="M6772 3044 c10 -10 20 -16 22 -13 3 3 -5 11 -17 18 -21 13 -21 12 -5
-5z"/>
<path d="M6956 3047 c3 -10 9 -15 12 -12 3 3 0 11 -7 18 -10 9 -11 8 -5 -6z"/>
<path d="M7274 3052 c3 -6 -2 -13 -11 -15 -16 -4 -16 -5 -1 -6 21 -1 32 15 17
25 -7 4 -9 3 -5 -4z"/>
<path d="M7695 3034 c0 -25 10 -23 17 4 3 10 0 19 -6 19 -6 0 -11 -10 -11 -23z"/>
<path d="M4010 3039 c0 -5 5 -7 10 -4 6 3 10 8 10 11 0 2 -4 4 -10 4 -5 0 -10
-5 -10 -11z"/>
<path d="M5667 3039 c7 -7 15 -10 18 -7 3 3 -2 9 -12 12 -14 6 -15 5 -6 -5z"/>
<path d="M5790 3039 c0 -5 5 -7 10 -4 6 3 10 8 10 11 0 2 -4 4 -10 4 -5 0 -10
-5 -10 -11z"/>
<path d="M7638 3033 c7 -3 16 -2 19 1 4 3 -2 6 -13 5 -11 0 -14 -3 -6 -6z"/>
<path d="M4562 2898 c-17 -17 -15 -43 5 -59 15 -13 15 -12 3 7 -17 27 -8 51
22 57 20 4 20 4 3 6 -12 0 -26 -4 -33 -11z"/>
<path d="M4910 2870 c0 -22 2 -40 4 -40 2 0 6 18 8 40 2 22 0 40 -4 40 -5 0
-8 -18 -8 -40z"/>
<path d="M5532 2898 c-17 -17 -15 -43 6 -59 14 -11 15 -11 5 1 -18 20 -16 47
5 59 9 6 12 11 7 11 -6 0 -16 -5 -23 -12z"/>
<path d="M5613 2870 c0 -25 2 -35 4 -22 2 12 2 32 0 45 -2 12 -4 2 -4 -23z"/>
<path d="M6659 2893 c-13 -16 -12 -17 4 -4 16 13 21 21 13 21 -2 0 -10 -8 -17
-17z"/>
<path d="M6923 2870 c0 -25 2 -35 4 -22 2 12 2 32 0 45 -2 12 -4 2 -4 -23z"/>
<path d="M7108 2903 c6 -2 18 -2 25 0 6 3 1 5 -13 5 -14 0 -19 -2 -12 -5z"/>
<path d="M6350 2866 c0 -14 4 -27 8 -30 5 -3 6 8 4 25 -5 35 -12 38 -12 5z"/>
<path d="M6950 2880 c0 -5 5 -10 11 -10 5 0 7 5 4 10 -3 6 -8 10 -11 10 -2 0
-4 -4 -4 -10z"/>
<path d="M3473 2864 c-3 -8 -2 -19 3 -24 5 -5 9 1 9 16 0 28 -3 30 -12 8z"/>
<path d="M3552 2855 c0 -16 2 -22 5 -12 2 9 2 23 0 30 -3 6 -5 -1 -5 -18z"/>
<path d="M3593 2864 c-3 -8 -2 -19 3 -24 5 -5 9 1 9 16 0 28 -3 30 -12 8z"/>
<path d="M3732 2855 c0 -16 2 -22 5 -12 2 9 2 23 0 30 -3 6 -5 -1 -5 -18z"/>
<path d="M3798 2853 c5 -21 7 -23 10 -9 2 10 0 22 -6 28 -6 6 -7 0 -4 -19z"/>
<path d="M3833 2864 c-3 -8 -2 -19 3 -24 5 -5 9 1 9 16 0 28 -3 30 -12 8z"/>
<path d="M3903 2864 c-3 -8 -2 -19 3 -24 5 -5 9 1 9 16 0 28 -3 30 -12 8z"/>
<path d="M4010 2869 c0 -5 5 -7 10 -4 6 3 10 8 10 11 0 2 -4 4 -10 4 -5 0 -10
-5 -10 -11z"/>
<path d="M4055 2855 c0 -13 3 -21 8 -18 4 2 7 10 7 18 0 8 -3 16 -7 18 -5 3
-8 -5 -8 -18z"/>
<path d="M4220 2871 c0 -6 4 -13 10 -16 6 -3 7 1 4 9 -7 18 -14 21 -14 7z"/>
<path d="M4642 2855 c0 -16 2 -22 5 -12 2 9 2 23 0 30 -3 6 -5 -1 -5 -18z"/>
<path d="M4673 2864 c-3 -8 -2 -19 3 -24 5 -5 9 1 9 16 0 28 -3 30 -12 8z"/>
<path d="M4771 2864 c0 -11 3 -14 6 -6 3 7 2 16 -1 19 -3 4 -6 -2 -5 -13z"/>
<path d="M5102 2855 c0 -16 2 -22 5 -12 2 9 2 23 0 30 -3 6 -5 -1 -5 -18z"/>
<path d="M5168 2853 c5 -21 7 -23 10 -9 2 10 0 22 -6 28 -6 6 -7 0 -4 -19z"/>
<path d="M5242 2855 c0 -16 2 -22 5 -12 2 9 2 23 0 30 -3 6 -5 -1 -5 -18z"/>
<path d="M5642 2855 c0 -16 2 -22 5 -12 2 9 2 23 0 30 -3 6 -5 -1 -5 -18z"/>
<path d="M6223 2865 c-3 -9 -3 -18 -1 -21 3 -3 8 4 11 16 6 23 -1 27 -10 5z"/>
<path d="M6392 2855 c0 -16 2 -22 5 -12 2 9 2 23 0 30 -3 6 -5 -1 -5 -18z"/>
<path d="M6483 2864 c-3 -8 -2 -19 3 -24 5 -5 9 1 9 16 0 28 -3 30 -12 8z"/>
<path d="M6780 2861 c0 -11 4 -22 9 -25 4 -3 6 6 3 19 -5 30 -12 33 -12 6z"/>
<path d="M6853 2864 c-3 -8 -2 -19 3 -24 5 -5 9 1 9 16 0 28 -3 30 -12 8z"/>
<path d="M7025 2869 c-4 -6 -5 -12 -2 -15 2 -3 7 2 10 11 7 17 1 20 -8 4z"/>
<path d="M4160 2866 c0 -3 9 -10 20 -16 11 -6 20 -8 20 -6 0 3 -9 10 -20 16
-11 6 -20 8 -20 6z"/>
<path d="M5342 2850 c0 -14 2 -19 5 -12 2 6 2 18 0 25 -3 6 -5 1 -5 -13z"/>
<path d="M5370 2866 c0 -3 9 -10 20 -16 11 -6 20 -8 20 -6 0 3 -9 10 -20 16
-11 6 -20 8 -20 6z"/>
<path d="M5872 2850 c0 -14 2 -19 5 -12 2 6 2 18 0 25 -3 6 -5 1 -5 -13z"/>
<path d="M7212 2850 c0 -14 2 -19 5 -12 2 6 2 18 0 25 -3 6 -5 1 -5 -13z"/>
<path d="M3665 2849 c-4 -6 -5 -12 -2 -15 2 -3 7 2 10 11 7 17 1 20 -8 4z"/>
<path d="M4745 2849 c-4 -6 -5 -12 -2 -15 2 -3 7 2 10 11 7 17 1 20 -8 4z"/>
<path d="M5305 2851 c-3 -5 -2 -12 3 -15 5 -3 9 1 9 9 0 17 -3 19 -12 6z"/>
<path d="M5845 2849 c-4 -6 -5 -12 -2 -15 2 -3 7 2 10 11 7 17 1 20 -8 4z"/>
<path d="M6650 2851 c0 -6 4 -13 10 -16 6 -3 7 1 4 9 -7 18 -14 21 -14 7z"/>
<path d="M5980 2840 c0 -5 5 -10 10 -10 6 0 10 5 10 10 0 6 -4 10 -10 10 -5 0
-10 -4 -10 -10z"/>
<path d="M6815 2840 c-3 -5 -1 -10 4 -10 6 0 11 5 11 10 0 6 -2 10 -4 10 -3 0
-8 -4 -11 -10z"/>
<path d="M7001 2817 c-13 -21 -12 -21 5 -5 10 10 16 20 13 22 -3 3 -11 -5 -18
-17z"/>
<path d="M8883 2190 c-23 -9 -23 -13 -23 -178 l0 -169 25 -11 c23 -11 25 -16
25 -87 l0 -75 -28 0 c-31 0 -52 -16 -52 -40 0 -9 -11 -22 -25 -28 -24 -11 -25
-16 -25 -94 0 -46 -3 -120 -6 -164 l-7 -82 -48 -5 c-94 -11 -89 1 -89 -241 l0
-213 45 10 45 10 0 209 c0 129 4 208 10 208 6 0 11 -80 12 -206 l3 -206 185 1
c152 0 371 -12 308 -18 -20 -1 -22 -45 -4 -71 10 -13 9 -13 -6 -2 -10 8 -26
11 -38 7 -29 -9 -26 -43 6 -55 30 -12 22 -34 -9 -24 -20 6 -20 5 -8 -10 8 -10
22 -16 30 -13 14 3 16 -11 13 -111 -3 -105 -1 -118 18 -144 12 -16 23 -46 26
-66 l4 -37 -9 33 c-11 41 -21 53 -21 24 0 -11 -4 -23 -9 -26 -5 -3 -11 -17
-13 -30 -5 -22 -3 -24 14 -15 17 9 18 8 9 -10 -7 -13 -8 -22 -1 -26 6 -3 14 4
19 17 8 19 10 20 10 4 1 -10 -9 -35 -21 -55 -27 -42 -33 -71 -15 -72 25 -3
-49 -17 -93 -18 -40 -1 -61 8 -165 70 -66 39 -133 83 -150 98 -39 35 -103 76
-135 86 -14 4 -33 14 -43 23 -9 8 -18 13 -20 11 -1 -2 -1 -93 1 -202 l4 -197
43 0 44 0 4 143 3 142 2 -142 2 -143 330 0 330 0 0 610 0 610 -22 14 c-13 8
-44 18 -70 21 l-48 7 0 112 c0 168 -8 216 -36 227 -16 6 -24 16 -24 33 0 21
-6 26 -35 32 l-35 6 0 90 c0 57 4 87 10 83 6 -4 10 38 10 119 l0 125 48 8 c61
10 188 10 229 0 29 -8 33 -6 47 22 9 16 16 34 16 40 0 19 -103 33 -232 32 -73
-1 -180 1 -238 3 -58 3 -115 1 -127 -4z m90 -537 c-7 -2 -19 -2 -25 0 -7 3 -2
5 12 5 14 0 19 -2 13 -5z m247 -933 c8 -5 11 -12 8 -16 -10 -9 -38 3 -38 16 0
12 10 13 30 0z"/>
<path d="M6515 2095 c-66 -24 -76 -44 -69 -139 6 -68 4 -84 -10 -95 -12 -10
-16 -31 -16 -82 0 -64 -2 -70 -25 -81 l-25 -11 0 -148 c0 -118 3 -151 15 -163
16 -16 21 -13 -75 -32 -48 -9 -80 -41 -80 -79 l0 -33 48 12 c43 11 47 15 50
44 2 18 7 32 12 32 5 0 7 -13 4 -30 l-6 -30 208 -1 c115 0 229 -4 254 -8 25
-5 39 -9 31 -10 -9 -1 -12 -11 -9 -34 3 -29 1 -32 -22 -32 -33 0 -42 -40 -11
-50 27 -8 27 -29 0 -22 -13 3 -19 1 -16 -6 2 -7 13 -13 25 -15 20 -3 22 -10
22 -61 0 -32 -6 -63 -12 -70 -7 -8 -8 -11 -2 -8 14 8 48 -49 34 -58 -5 -3 -10
1 -10 9 0 9 -4 16 -10 16 -5 0 -10 -16 -10 -35 0 -19 5 -35 10 -35 6 0 3 -12
-7 -27 -17 -26 -17 -26 5 -21 19 5 21 4 11 -8 -9 -11 -9 -14 1 -14 7 0 2 -9
-11 -21 l-24 -20 23 6 c24 7 29 -4 10 -24 -7 -6 -13 -17 -13 -24 0 -8 -22 -13
-59 -15 -56 -3 -67 1 -170 54 -61 31 -126 68 -143 81 -42 31 -132 73 -157 73
-11 0 -28 7 -38 17 -17 16 -18 6 -18 -279 0 -225 3 -298 13 -306 7 -6 72 -10
163 -10 163 0 246 -7 282 -25 18 -8 28 -8 42 1 23 14 76 16 85 2 3 -5 13 -6
23 -3 15 6 15 5 3 -11 -12 -15 -12 -19 2 -33 21 -21 51 -9 44 17 -3 12 0 20 7
20 7 0 22 11 35 24 22 23 22 26 28 482 3 253 3 476 -1 497 -8 44 -41 65 -117
74 -27 3 -49 10 -49 14 0 5 7 9 16 9 10 0 14 5 10 16 -3 8 -2 12 4 9 6 -4 10
46 10 139 0 144 0 146 -25 162 -22 15 -25 23 -25 80 0 52 -4 68 -20 81 -17 15
-20 30 -20 100 l0 83 31 0 c28 0 30 2 27 33 l-3 32 -120 2 c-84 2 -132 -2
-160 -12z m-78 -622 c-2 -38 -3 -7 -3 67 0 74 1 105 3 68 2 -38 2 -98 0 -135z
m382 -322 c7 -5 9 -11 4 -14 -6 -4 -19 0 -29 8 -15 11 -16 14 -4 15 8 0 21 -4
29 -9z m-481 -563 c-1 -115 -6 -212 -10 -214 -4 -3 -8 94 -8 216 0 152 3 219
10 215 7 -5 10 -78 8 -217z"/>
<path d="M4005 1849 c-16 -5 -36 -7 -44 -4 -8 3 -18 0 -23 -7 -8 -10 -11 -10
-15 0 -6 14 -39 16 -48 2 -3 -5 1 -10 10 -10 11 0 15 -5 11 -15 -4 -12 7 -15
65 -15 47 0 78 -5 94 -16 41 -27 32 -44 -25 -45 -27 -1 -58 -2 -67 -3 -13 -1
-19 8 -21 27 -3 24 -7 28 -30 25 -23 -3 -28 -9 -30 -38 -5 -53 -16 -60 -94
-60 -52 0 -70 -4 -74 -15 -4 -9 -19 -15 -39 -15 -59 0 -187 -29 -207 -47 -18
-16 -19 -31 -16 -239 2 -167 0 -224 -9 -233 -10 -9 -13 -100 -13 -386 l0 -375
45 0 c41 0 45 -2 45 -24 0 -53 12 -56 258 -57 125 0 248 0 275 1 28 1 47 -3
47 -9 0 -6 -4 -11 -10 -11 -5 0 -10 -5 -10 -12 0 -6 3 -8 7 -5 3 4 12 2 19 -4
8 -7 14 -7 19 1 3 5 1 10 -4 10 -6 0 -11 6 -11 13 0 19 448 11 468 -9 8 -8 17
-12 20 -9 4 3 0 10 -8 15 -10 7 10 10 61 10 68 0 78 -3 93 -23 12 -15 16 -17
12 -5 -4 13 4 22 29 32 22 10 34 22 37 38 2 19 10 24 40 26 25 2 41 10 49 23
6 13 11 149 12 379 l2 358 -23 25 c-20 21 -21 25 -8 30 14 6 16 36 16 219 0
117 -4 219 -9 226 -23 37 -249 62 -595 65 -130 1 -236 5 -236 10 0 4 7 7 15 7
22 0 49 62 41 94 -4 15 -21 35 -39 46 -35 22 -39 22 -82 9z m-395 -423 c0
-212 0 -214 -22 -219 -12 -4 -23 -5 -24 -4 -1 1 -4 97 -6 214 l-4 212 26 4
c14 2 26 5 28 6 1 0 2 -95 2 -213z m-18 -590 c-2 -341 -7 -415 -24 -398 -15
15 -37 689 -23 712 3 4 15 8 27 8 l23 0 -3 -322z m1053 214 c33 -4 54 -8 48
-9 -9 -1 -13 -25 -13 -86 0 -61 -3 -85 -12 -85 -7 0 2 -8 20 -17 18 -9 40 -29
48 -44 16 -32 19 -53 3 -26 -6 9 -14 15 -18 12 -5 -2 -11 4 -14 15 -3 11 -11
20 -19 20 -10 0 -15 -15 -17 -52 -1 -29 -7 -58 -13 -65 -7 -9 -7 -13 0 -13 10
0 30 22 59 66 8 11 6 2 -2 -21 -9 -21 -23 -47 -32 -57 -20 -22 -5 -24 25 -3
20 14 21 14 16 0 -3 -8 -11 -15 -18 -15 -6 0 -5 -4 3 -9 8 -5 20 -7 28 -4 26
10 13 -17 -28 -58 -31 -31 -40 -47 -36 -65 l4 -24 -419 0 c-326 0 -419 3 -422
13 -3 6 -12 39 -21 72 -9 33 -43 114 -76 180 l-59 120 11 82 12 82 46 5 c69 6
827 -5 896 -14z m108 -315 c-3 -9 -8 -14 -10 -11 -3 3 -2 9 2 15 9 16 15 13 8
-4z"/>
<path d="M4052 975 c-7 -14 -12 -30 -12 -35 0 -11 43 -14 53 -4 5 6 -19 64
-27 64 -1 0 -8 -11 -14 -25z m28 -26 c0 -5 -7 -9 -15 -9 -15 0 -20 12 -9 23 8
8 24 -1 24 -14z"/>
<path d="M4110 994 c0 -6 9 -23 20 -37 11 -14 20 -38 21 -54 1 -28 1 -28 9 5
4 18 14 41 22 50 28 33 29 47 1 15 l-28 -31 -23 31 c-12 18 -22 27 -22 21z"/>
<path d="M4220 940 l0 -60 43 2 42 1 -37 4 c-30 3 -38 9 -38 24 0 14 7 19 30
19 17 0 30 5 30 10 0 6 -13 10 -30 10 -20 0 -30 5 -30 15 0 10 11 15 35 15 19
0 35 5 35 10 0 6 -18 10 -40 10 l-40 0 0 -60z"/>
<path d="M4327 993 c-4 -3 -6 -31 -6 -62 1 -31 4 -44 6 -28 5 35 35 36 53 2 7
-14 18 -25 23 -25 5 0 2 11 -7 25 -15 23 -15 26 -1 31 24 10 18 43 -11 54 -30
12 -48 13 -57 3z m61 -30 c-2 -12 -12 -18 -28 -18 -16 0 -26 6 -28 18 -3 13 3
17 28 17 25 0 31 -4 28 -17z"/>
<path d="M4435 984 c-21 -22 -15 -36 23 -53 40 -18 36 -37 -7 -35 -36 2 -39
-1 -11 -16 31 -16 60 -3 60 26 0 19 -8 28 -30 36 -38 13 -33 34 6 31 27 -2 28
-1 10 12 -25 19 -31 19 -51 -1z"/>
<path d="M3931 985 c-7 -30 -7 -63 0 -82 7 -18 16 -23 41 -22 l33 1 -30 7
c-27 6 -31 10 -36 56 -3 28 -7 46 -8 40z"/>
<path d="M4016 904 c-4 -9 -4 -19 -1 -22 2 -3 7 3 11 12 8 22 70 22 78 0 4 -9
9 -15 11 -12 3 3 3 13 -1 22 -9 23 -89 23 -98 0z"/>
<path d="M4113 815 c-3 -9 -3 -19 1 -22 3 -4 6 1 6 10 0 8 6 18 13 20 9 4 9 6
-1 6 -7 1 -15 -6 -19 -14z"/>
<path d="M4193 814 c-7 -20 12 -41 22 -23 5 8 4 10 -3 5 -7 -4 -12 -1 -12 9 0
10 5 13 12 9 7 -4 8 -3 4 4 -10 16 -15 15 -23 -4z"/>
<path d="M3970 810 c0 -5 5 -10 11 -10 5 0 7 5 4 10 -3 6 -8 10 -11 10 -2 0
-4 -4 -4 -10z"/>
<path d="M4060 809 c0 -5 5 -7 10 -4 6 3 10 8 10 11 0 2 -4 4 -10 4 -5 0 -10
-5 -10 -11z"/>
<path d="M4236 807 c3 -8 11 -14 19 -14 8 0 16 6 19 14 4 9 -3 13 -19 13 -16
0 -23 -4 -19 -13z"/>
<path d="M3960 744 c0 -8 5 -12 10 -9 6 4 8 11 5 16 -9 14 -15 11 -15 -7z"/>
<path d="M4061 747 c-1 -11 -6 -15 -13 -11 -7 5 -8 3 -3 -5 10 -16 29 2 22 21
-4 8 -6 7 -6 -5z"/>
<path d="M4125 748 c8 -20 -10 -25 -18 -5 -4 9 -6 9 -6 0 -1 -18 19 -27 32
-14 8 8 8 14 -2 24 -10 10 -11 9 -6 -5z"/>
<path d="M4151 744 c0 -11 3 -14 6 -6 3 7 2 16 -1 19 -3 4 -6 -2 -5 -13z"/>
<path d="M4181 744 c0 -11 3 -14 6 -6 3 7 2 16 -1 19 -3 4 -6 -2 -5 -13z"/>
<path d="M4202 743 c2 -9 10 -18 18 -20 13 -4 13 -3 0 6 -13 10 -13 12 0 21
13 8 12 10 -3 10 -12 0 -17 -6 -15 -17z"/>
<path d="M4006 728 c3 -5 10 -6 15 -3 13 9 11 12 -6 12 -8 0 -12 -4 -9 -9z"/>
<path d="M4013 685 c0 -8 4 -12 9 -9 4 3 8 9 8 15 0 5 -4 9 -8 9 -5 0 -9 -7
-9 -15z"/>
<path d="M4040 696 c0 -2 7 -7 16 -10 8 -3 12 -2 9 4 -6 10 -25 14 -25 6z"/>
<path d="M4116 692 c-2 -4 -1 -14 5 -22 7 -12 9 -10 9 8 0 23 -5 28 -14 14z"/>
<path d="M4181 693 c-1 -8 -8 -10 -18 -6 -16 6 -16 5 -4 -11 16 -19 37 -7 28
16 -4 9 -6 9 -6 1z"/>
<path d="M4207 693 c-12 -11 -8 -33 6 -33 7 0 13 9 13 20 0 20 -7 25 -19 13z"/>
<path d="M4240 684 c0 -8 5 -12 10 -9 6 4 8 11 5 16 -9 14 -15 11 -15 -7z"/>
<path d="M4290 680 c0 -11 2 -20 4 -20 2 0 6 9 9 20 3 11 1 20 -4 20 -5 0 -9
-9 -9 -20z"/>
<path d="M4323 680 c1 -11 7 -20 14 -20 6 0 11 9 10 20 -1 11 -7 20 -14 20 -6
0 -11 -9 -10 -20z"/>
<path d="M4266 681 c-4 -7 -5 -15 -2 -18 9 -9 19 4 14 18 -4 11 -6 11 -12 0z"/>
<path d="M4679 619 l-24 -20 25 7 c14 3 32 12 40 20 25 24 -14 18 -41 -7z"/>
<path d="M1265 1459 c-55 -5 -115 -17 -135 -27 l-35 -17 -5 -178 c-3 -106 -1
-182 5 -188 5 -5 18 -9 30 -9 11 0 26 -4 34 -9 9 -6 -9 -11 -55 -16 -38 -3
-87 -12 -109 -18 l-40 -12 -6 -110 c-12 -211 -10 -530 4 -548 16 -22 44 -24
587 -32 239 -4 440 -10 445 -13 6 -4 18 -5 27 -4 9 2 28 -4 41 -12 13 -9 26
-13 30 -10 9 9 48 -6 42 -17 -4 -5 -19 -9 -34 -9 -29 0 -71 -38 -71 -65 0 -20
7 -19 55 4 22 11 48 22 58 25 9 3 17 15 17 28 1 22 1 22 14 5 13 -17 16 -17
45 -3 18 10 32 12 36 6 3 -5 13 -6 22 -3 12 5 15 2 10 -10 -9 -24 20 -44 44
-29 11 7 24 10 29 7 6 -4 10 2 10 11 0 16 1 16 20 -1 11 -10 20 -24 20 -32 0
-17 15 -17 30 2 15 18 31 10 23 -11 -3 -9 7 -4 23 11 24 22 30 24 32 11 2 -9
8 -16 13 -16 6 0 7 5 4 10 -9 14 4 52 15 45 14 -9 140 7 140 17 0 14 -50 31
-110 37 -60 7 -70 23 -18 31 33 5 33 5 39 75 9 97 10 426 2 519 -7 91 -10 93
-135 103 -43 3 -78 10 -78 14 0 5 13 9 29 9 49 0 52 11 43 205 l-7 178 -36 12
c-20 7 -80 18 -135 25 -124 15 -872 22 -1009 9z m-29 -204 c-4 -93 -8 -170 -9
-171 -1 -1 -13 -5 -26 -9 l-24 -7 7 172 c4 96 9 177 12 181 2 4 14 7 26 6 21
-1 21 -3 14 -172z m307 -252 c-7 -2 -21 -2 -30 0 -10 3 -4 5 12 5 17 0 24 -2
18 -5z m-424 -216 c-4 -106 -7 -235 -9 -287 -2 -116 -17 -86 -26 55 -3 49 -9
94 -14 100 -5 6 -10 80 -11 164 -1 162 2 172 44 164 22 -4 22 -5 16 -196z
m1143 107 c40 -6 45 -9 33 -20 -7 -8 -11 -22 -9 -31 4 -14 14 -17 47 -15 35 3
46 -1 62 -20 11 -13 13 -17 5 -10 -31 27 -100 10 -121 -31 -12 -21 -11 -21 6
-7 17 14 18 14 6 -7 -13 -25 -12 -143 1 -143 5 0 20 8 35 17 26 17 26 17 14
-5 -10 -19 -9 -21 6 -15 12 4 8 -3 -9 -20 -38 -36 -35 -40 10 -16 21 12 29 14
18 5 -11 -9 -23 -16 -28 -16 -4 0 -8 -4 -8 -10 0 -14 54 -12 69 3 10 10 11 9
6 -4 -7 -19 -56 -32 -91 -23 -21 5 -24 3 -24 -20 0 -14 -6 -26 -12 -27 -7 -1
-2 -5 12 -9 14 -4 -181 -8 -432 -9 l-457 -1 -17 58 c-20 69 -33 98 -85 182
-30 49 -39 72 -35 95 3 17 8 50 11 74 l7 44 467 -7 c256 -3 487 -9 513 -12z
m248 -674 c0 -5 -9 -14 -21 -20 -19 -11 -20 -10 -9 9 11 22 30 29 30 11z m-96
-16 c3 -8 2 -12 -4 -9 -6 3 -10 10 -10 16 0 14 7 11 14 -7z"/>
<path d="M1492 777 c-2 -52 0 -58 22 -69 14 -6 33 -7 43 -3 14 7 11 10 -17 14
-34 6 -35 7 -41 61 l-6 55 -1 -58z"/>
<path d="M1625 801 c-20 -40 -20 -41 19 -41 34 0 35 0 24 30 -14 42 -25 45
-43 11z m35 -22 c0 -5 -7 -9 -15 -9 -15 0 -20 12 -9 23 8 8 24 -1 24 -14z"/>
<path d="M1690 824 c0 -6 9 -23 20 -37 11 -14 20 -37 20 -51 0 -14 5 -26 10
-26 6 0 10 10 10 23 0 12 9 36 20 52 27 42 25 57 -2 18 -22 -31 -38 -42 -38
-25 -1 12 -40 58 -40 46z"/>
<path d="M1810 765 l0 -65 46 0 c29 0 43 4 39 11 -4 6 -21 9 -38 7 -26 -2 -32
1 -32 17 0 15 8 21 35 24 l35 4 -35 6 c-22 4 -36 12 -38 24 -3 14 4 17 37 17
23 0 41 5 41 10 0 6 -20 10 -45 10 l-45 0 0 -65z"/>
<path d="M1921 763 c1 -38 4 -57 6 -43 8 45 22 47 53 10 29 -35 42 -31 16 5
-12 16 -11 21 8 37 l21 18 -24 20 c-13 11 -36 20 -52 20 l-29 0 1 -67z m74 27
c0 -10 -12 -16 -32 -18 -28 -3 -33 0 -33 18 0 18 5 21 33 18 20 -2 32 -8 32
-18z"/>
<path d="M2048 819 c-30 -17 -22 -48 17 -65 19 -8 35 -19 35 -24 0 -17 -27
-22 -50 -10 -18 9 -21 9 -18 -1 8 -23 46 -29 68 -11 27 22 18 47 -21 61 -16 6
-29 17 -29 27 0 13 6 15 33 10 30 -5 31 -5 13 9 -23 17 -25 18 -48 4z"/>
<path d="M1590 730 c-6 -11 -7 -20 -1 -20 5 0 11 7 15 15 3 9 18 15 40 15 26
0 36 -5 41 -21 4 -11 9 -18 12 -16 3 3 2 15 -2 26 -9 30 -89 30 -105 1z"/>
<path d="M1770 646 c0 -31 6 -34 13 -6 3 11 1 23 -4 26 -5 3 -9 -6 -9 -20z"/>
<path d="M1522 645 c2 -11 10 -20 18 -20 8 0 16 9 18 20 3 17 1 17 -7 5 -10
-13 -12 -13 -22 0 -8 12 -10 12 -7 -5z"/>
<path d="M1582 646 c4 -28 38 -30 38 -3 0 18 -2 19 -10 7 -9 -13 -11 -13 -21
0 -8 13 -10 12 -7 -4z"/>
<path d="M1634 640 c1 -8 9 -16 19 -18 12 -3 17 3 16 20 -1 17 -3 18 -6 6 -5
-21 -20 -24 -26 -5 -2 7 -3 6 -3 -3z"/>
<path d="M1686 645 c-9 -26 -7 -32 5 -12 6 10 9 21 6 23 -2 3 -7 -2 -11 -11z"/>
<path d="M1707 645 c-4 -8 -2 -17 3 -20 6 -4 10 3 10 14 0 25 -6 27 -13 6z"/>
<path d="M1742 640 c0 -14 2 -19 5 -12 2 6 2 18 0 25 -3 6 -5 1 -5 -13z"/>
<path d="M1811 638 c5 -10 11 -18 13 -18 2 0 6 8 8 18 4 12 -1 18 -13 18 -14
0 -15 -4 -8 -18z"/>
<path d="M1490 584 c0 -6 6 -17 14 -23 10 -9 16 -8 26 4 7 9 10 18 7 22 -4 3
-9 -2 -13 -11 -6 -15 -7 -15 -20 1 -7 10 -14 13 -14 7z"/>
<path d="M1554 575 c-4 -9 -4 -19 0 -22 3 -4 6 1 6 10 0 21 17 22 23 2 4 -12
5 -11 3 1 -2 23 -24 30 -32 9z"/>
<path d="M1602 570 c0 -14 2 -19 5 -12 2 6 2 18 0 25 -3 6 -5 1 -5 -13z"/>
<path d="M1630 581 c0 -6 5 -13 10 -16 6 -4 7 -12 4 -18 -4 -8 -2 -7 7 1 12
11 12 14 0 21 -11 7 -11 9 0 14 10 4 9 6 -3 6 -10 1 -18 -3 -18 -8z"/>
<path d="M1680 570 c0 -11 2 -20 4 -20 2 0 6 9 9 20 3 11 1 20 -4 20 -5 0 -9
-9 -9 -20z"/>
<path d="M1723 570 c1 -15 8 -25 17 -25 9 0 16 11 17 25 l3 25 -11 -25 -12
-25 -8 25 -8 25 2 -25z"/>
<path d="M1770 570 c0 -20 19 -23 32 -5 9 12 0 25 -18 25 -8 0 -14 -9 -14 -20z"/>
<path d="M1822 565 c0 -16 2 -22 5 -12 2 9 2 23 0 30 -3 6 -5 -1 -5 -18z"/>
<path d="M1853 584 c3 -4 2 -15 -4 -25 -8 -16 -6 -19 13 -18 13 0 17 3 11 6
-9 3 -10 10 -3 24 9 15 7 19 -6 19 -10 0 -14 -3 -11 -6z"/>
<path d="M1890 565 c0 -17 5 -25 18 -25 14 0 15 2 2 10 -13 9 -13 10 0 10 12
0 13 2 1 9 -11 7 -11 9 0 14 10 4 9 6 -3 6 -13 1 -18 -7 -18 -24z"/>
<path d="M1937 583 c-13 -13 -7 -31 13 -36 16 -4 20 0 20 19 0 23 -18 32 -33
17z"/>
<path d="M6605 1182 c-3 -3 -5 -25 -5 -49 l0 -43 38 1 c35 1 35 2 8 8 -40 8
-46 31 -9 32 27 1 27 1 4 8 -37 10 -37 29 1 33 l33 3 -33 6 c-17 3 -34 3 -37
1z"/>
<path d="M6465 1159 c-4 -11 -4 -23 -1 -26 3 -4 6 1 6 10 0 10 5 17 10 17 6 0
10 5 10 10 0 18 -19 10 -25 -11z"/>
<path d="M6530 1153 c12 -18 19 -37 15 -42 -3 -5 -1 -12 5 -16 6 -3 10 4 10
17 0 13 7 35 16 48 l16 25 -21 -24 -21 -23 -21 23 c-20 23 -20 23 1 -8z"/>
<path d="M6687 1173 c-9 -16 -6 -83 3 -83 6 0 10 9 10 20 0 27 14 25 35 -6 9
-14 19 -23 22 -20 3 3 0 12 -7 21 -10 12 -10 18 0 30 19 23 4 45 -29 45 -16 0
-32 -3 -34 -7z m53 -18 c0 -8 -9 -15 -20 -15 -11 0 -20 7 -20 15 0 8 9 15 20
15 11 0 20 -7 20 -15z"/>
<path d="M6374 1130 c1 -29 5 -35 24 -36 17 -1 18 -1 3 3 -14 3 -21 15 -24 36
-4 31 -4 31 -3 -3z"/>
<path d="M6440 1109 c0 -5 5 -7 10 -4 6 3 10 8 10 11 0 2 -4 4 -10 4 -5 0 -10
-5 -10 -11z"/>
<path d="M6506 1107 c3 -10 9 -15 12 -12 3 3 0 11 -7 18 -10 9 -11 8 -5 -6z"/>
<path d="M6571 1034 c0 -11 3 -14 6 -6 3 7 2 16 -1 19 -3 4 -6 -2 -5 -13z"/>
<path d="M6617 1019 c7 -7 15 -10 18 -7 3 3 -2 9 -12 12 -14 6 -15 5 -6 -5z"/>
<path d="M6530 979 c0 -5 -4 -7 -10 -4 -5 3 -10 1 -10 -4 0 -6 7 -11 15 -11 8
0 15 7 15 15 0 8 -2 15 -5 15 -3 0 -5 -5 -5 -11z"/>
<path d="M8877 743 c-11 -10 -8 -25 3 -18 6 3 10 -1 10 -9 0 -9 5 -16 10 -16
7 0 7 8 -1 23 -15 29 -15 28 -22 20z"/>
<path d="M8971 729 c-12 -20 -13 -20 -34 -2 l-21 18 16 -25 c9 -14 18 -35 21
-45 5 -19 5 -19 6 0 0 11 8 31 17 43 9 13 14 25 12 27 -2 2 -10 -5 -17 -16z"/>
<path d="M9004 736 c-3 -8 -4 -29 -2 -48 3 -29 7 -33 36 -36 18 -2 32 1 32 7
0 6 -11 11 -25 11 -16 0 -25 6 -25 16 0 11 6 15 20 11 11 -3 23 -1 26 4 3 5
-6 9 -20 9 -35 0 -34 27 2 33 25 4 24 4 -6 6 -20 0 -35 -4 -38 -13z"/>
<path d="M9091 698 c1 -29 4 -43 6 -30 5 28 24 28 41 1 7 -12 16 -18 19 -15 3
3 0 13 -8 22 -11 13 -11 18 -1 21 17 6 15 40 -4 47 -44 17 -54 8 -53 -46z m59
21 c0 -5 -11 -9 -25 -9 -14 0 -25 6 -25 14 0 9 8 12 25 8 14 -2 25 -8 25 -13z"/>
<path d="M8782 705 c0 -16 2 -22 5 -12 2 9 2 23 0 30 -3 6 -5 -1 -5 -18z"/>
<path d="M8846 673 c-6 -14 -5 -16 5 -5 16 15 55 16 62 2 3 -6 4 -5 3 2 -4 21
-62 22 -70 1z"/>
<path d="M8788 658 c6 -6 18 -8 28 -6 14 3 12 5 -9 10 -19 3 -25 2 -19 -4z"/>
<path d="M8781 594 c0 -11 3 -14 6 -6 3 7 2 16 -1 19 -3 4 -6 -2 -5 -13z"/>
<path d="M8890 600 c0 -5 5 -10 11 -10 5 0 7 5 4 10 -3 6 -8 10 -11 10 -2 0
-4 -4 -4 -10z"/>
<path d="M8980 601 c0 -5 5 -13 10 -16 6 -3 10 -2 10 4 0 5 -4 13 -10 16 -5 3
-10 2 -10 -4z"/>
<path d="M9018 583 c7 -3 16 -2 19 1 4 3 -2 6 -13 5 -11 0 -14 -3 -6 -6z"/>
<path d="M8991 544 c0 -11 3 -14 6 -6 3 7 2 16 -1 19 -3 4 -6 -2 -5 -13z"/>
<path d="M9025 550 c-8 -13 -1 -24 14 -19 6 3 7 10 2 18 -6 10 -10 10 -16 1z"/>
<path d="M9052 549 c2 -7 10 -15 17 -17 8 -3 12 1 9 9 -2 7 -10 15 -17 17 -8
3 -12 -1 -9 -9z"/>
<path d="M9092 543 c2 -9 13 -18 26 -19 16 -3 22 1 22 16 0 22 -15 27 -23 8
-4 -10 -6 -10 -6 0 -1 6 -6 12 -12 12 -6 0 -9 -7 -7 -17z"/>
<path d="M9150 547 c0 -8 7 -18 16 -21 11 -4 14 -1 12 11 -4 21 -28 30 -28 10z"/>
<path d="M8785 540 c-3 -5 -1 -10 4 -10 6 0 11 5 11 10 0 6 -2 10 -4 10 -3 0
-8 -4 -11 -10z"/>
<path d="M9212 340 c0 -14 2 -19 5 -12 2 6 2 18 0 25 -3 6 -5 1 -5 -13z"/>
<path d="M1586 252 l-19 -27 24 22 c12 12 21 24 18 27 -2 2 -13 -8 -23 -22z"/>
<path d="M1797 244 c-4 -21 -5 -39 -4 -41 7 -7 23 56 17 67 -4 7 -10 -4 -13
-26z"/>
<path d="M1832 255 c0 -16 2 -22 5 -12 2 9 2 23 0 30 -3 6 -5 -1 -5 -18z"/>
<path d="M4458 273 c7 -3 16 -2 19 1 4 3 -2 6 -13 5 -11 0 -14 -3 -6 -6z"/>
<path d="M4510 270 c0 -5 7 -7 15 -4 8 4 15 8 15 10 0 2 -7 4 -15 4 -8 0 -15
-4 -15 -10z"/>
<path d="M4985 264 c-8 -6 -15 -20 -14 -30 0 -11 3 -13 6 -6 2 6 17 12 33 12
18 0 29 6 32 18 4 12 -1 17 -18 17 -13 0 -30 -5 -39 -11z"/>
<path d="M5198 273 c7 -3 16 -2 19 1 4 3 -2 6 -13 5 -11 0 -14 -3 -6 -6z"/>
<path d="M5235 270 c-8 -13 15 -13 35 0 12 8 11 10 -7 10 -12 0 -25 -4 -28
-10z"/>
<path d="M5315 269 c-12 -18 3 -22 20 -5 14 14 14 16 1 16 -8 0 -18 -5 -21
-11z"/>
<path d="M4050 260 c0 -5 5 -10 10 -10 6 0 10 5 10 10 0 6 -4 10 -10 10 -5 0
-10 -4 -10 -10z"/>
<path d="M6635 255 c-17 -13 -18 -16 -5 -25 28 -18 42 -8 31 23 -6 16 -8 16
-26 2z"/>
<path d="M6798 252 c-6 -20 17 -47 27 -32 3 6 1 10 -6 10 -6 0 -9 8 -6 20 3
11 2 20 -3 20 -4 0 -10 -8 -12 -18z"/>
<path d="M6590 249 c0 -5 5 -7 10 -4 6 3 10 8 10 11 0 2 -4 4 -10 4 -5 0 -10
-5 -10 -11z"/>
<path d="M7200 250 c0 -5 5 -10 11 -10 5 0 7 5 4 10 -3 6 -8 10 -11 10 -2 0
-4 -4 -4 -10z"/>
<path d="M1510 243 c-18 -8 -39 -34 -40 -50 0 -7 13 1 28 17 16 16 32 27 35
23 4 -3 7 -1 7 5 0 13 -6 14 -30 5z"/>
<path d="M1850 243 c0 -5 5 -15 10 -23 7 -12 12 -12 22 -2 10 10 10 15 -2 22
-18 12 -30 13 -30 3z"/>
<path d="M4465 240 c3 -5 10 -10 16 -10 5 0 9 5 9 10 0 6 -7 10 -16 10 -8 0
-12 -4 -9 -10z"/>
<path d="M7276 228 c-8 -31 -7 -43 2 -34 4 4 7 11 6 14 -1 13 21 29 33 25 7
-3 13 0 13 6 0 6 -11 11 -24 11 -16 0 -26 -7 -30 -22z"/>
<path d="M7483 239 c4 -12 0 -15 -19 -11 -14 2 -24 0 -24 -7 0 -6 9 -11 20
-11 13 0 20 -7 20 -19 0 -14 5 -18 20 -14 11 3 20 0 20 -6 0 -6 -9 -11 -19
-11 -16 0 -31 -18 -31 -36 0 -2 12 -5 28 -5 23 -2 24 -2 5 -6 -28 -5 -30 -33
-3 -33 15 0 20 -7 20 -25 0 -16 -4 -23 -14 -19 -7 3 -16 -2 -19 -10 -8 -19 16
-22 31 -3 6 7 11 46 12 87 2 100 1 114 -6 107 -4 -3 -15 4 -26 16 -13 14 -18
16 -15 6z"/>
<path d="M6522 228 c-14 -14 -16 -28 -3 -28 5 0 11 9 14 20 6 23 5 24 -11 8z"/>
<path d="M6901 227 c-9 -11 -3 -18 28 -32 40 -18 93 -13 73 7 -6 6 -8 18 -4
27 5 14 3 14 -10 3 -11 -9 -18 -10 -23 -2 -9 14 -50 12 -64 -3z"/>
<path d="M1646 222 c-3 -6 -1 -14 5 -17 14 -9 20 -2 10 14 -6 8 -11 9 -15 3z"/>
<path d="M1752 223 c-7 -3 -17 -14 -23 -25 -9 -18 -8 -18 10 -9 32 18 43 44
13 34z"/>
<path d="M5905 220 c3 -5 8 -10 11 -10 2 0 4 5 4 10 0 6 -5 10 -11 10 -5 0 -7
-4 -4 -10z"/>
<path d="M6555 220 c-18 -8 -18 -9 -2 -9 10 -1 15 -5 12 -11 -3 -5 -1 -10 4
-10 6 0 11 9 11 20 0 11 -1 20 -2 19 -2 0 -12 -4 -23 -9z"/>
<path d="M7030 221 c0 -14 18 -23 31 -15 8 4 7 9 -2 15 -18 11 -29 11 -29 0z"/>
<path d="M7370 213 c0 -7 -4 -13 -10 -13 -5 0 -10 -8 -10 -19 0 -28 38 -34 63
-10 12 11 23 15 25 9 5 -15 22 -12 22 4 0 9 -7 13 -17 11 -44 -9 -87 -15 -75
-9 21 10 33 41 16 41 -7 0 -14 -6 -14 -14z"/>
<path d="M2730 198 c0 -14 -13 -33 -35 -51 -29 -23 -35 -34 -35 -65 l0 -37 14
30 c8 17 17 38 20 48 3 10 20 24 36 30 24 9 30 17 28 36 -4 32 -28 40 -28 9z"/>
<path d="M4846 211 c-3 -5 3 -11 14 -14 24 -6 60 2 60 14 0 12 -67 12 -74 0z"/>
<path d="M6625 210 c-3 -5 -1 -10 4 -10 6 0 11 5 11 10 0 6 -2 10 -4 10 -3 0
-8 -4 -11 -10z"/>
<path d="M6679 203 c-13 -16 -12 -17 4 -4 16 13 21 21 13 21 -2 0 -10 -8 -17
-17z"/>
<path d="M6758 213 c7 -3 16 -2 19 1 4 3 -2 6 -13 5 -11 0 -14 -3 -6 -6z"/>
<path d="M7157 213 c-3 -5 1 -14 8 -20 11 -10 13 -9 12 7 -1 20 -12 26 -20 13z"/>
<path d="M9215 210 c-3 -5 -2 -10 4 -10 5 0 13 5 16 10 3 6 2 10 -4 10 -5 0
-13 -4 -16 -10z"/>
<path d="M1990 169 c0 -16 4 -28 9 -25 8 5 3 56 -5 56 -2 0 -4 -14 -4 -31z"/>
<path d="M4437 193 c-4 -3 -7 -11 -7 -17 0 -6 5 -5 12 2 6 6 9 14 7 17 -3 3
-9 2 -12 -2z"/>
<path d="M6864 192 c-14 -9 -29 -66 -15 -58 8 5 34 66 28 66 -1 0 -7 -4 -13
-8z"/>
<path d="M1210 180 c0 -5 5 -10 11 -10 5 0 7 5 4 10 -3 6 -8 10 -11 10 -2 0
-4 -4 -4 -10z"/>
<path d="M2227 170 c-14 -14 -15 -19 -5 -23 9 -4 7 -6 -4 -6 -18 -1 -29 -28
-32 -76 0 -14 -7 -25 -13 -25 -13 0 -16 7 -15 50 0 15 -4 8 -10 -17 -10 -41
-12 -42 -49 -40 -22 2 -39 -1 -39 -5 0 -12 39 -19 75 -12 20 3 35 2 35 -3 0
-5 14 -8 30 -5 23 3 30 9 30 28 0 12 5 26 10 29 6 4 4 12 -5 21 -8 9 -15 21
-15 27 0 8 4 7 12 -1 19 -19 26 -14 30 23 5 44 -10 59 -35 35z"/>
<path d="M3975 180 c-3 -5 -1 -10 4 -10 6 0 11 5 11 10 0 6 -2 10 -4 10 -3 0
-8 -4 -11 -10z"/>
<path d="M4018 183 c7 -3 16 -2 19 1 4 3 -2 6 -13 5 -11 0 -14 -3 -6 -6z"/>
<path d="M7030 180 c0 -5 5 -10 10 -10 6 0 10 5 10 10 0 6 -4 10 -10 10 -5 0
-10 -4 -10 -10z"/>
<path d="M7310 178 c0 -19 -62 -50 -83 -42 -9 3 -17 4 -17 0 0 -3 15 -10 33
-14 l32 -10 -39 -16 c-21 -10 -36 -20 -33 -23 4 -3 14 -2 24 2 10 5 24 7 31 6
11 -2 16 18 10 36 -2 3 13 12 32 18 35 12 49 44 23 53 -7 2 -13 -2 -13 -10z"/>
<path d="M1290 169 c0 -5 5 -7 10 -4 6 3 10 8 10 11 0 2 -4 4 -10 4 -5 0 -10
-5 -10 -11z"/>
<path d="M1740 177 c0 -5 5 -17 10 -27 7 -13 7 -21 0 -25 -5 -3 -10 -11 -10
-16 0 -6 13 0 29 13 17 13 30 30 30 38 0 11 -3 10 -14 -4 -16 -21 -17 -21 -33
9 -6 11 -12 16 -12 12z"/>
<path d="M2565 170 c-3 -5 -1 -10 4 -10 6 0 11 5 11 10 0 6 -2 10 -4 10 -3 0
-8 -4 -11 -10z"/>
<path d="M6726 172 c-14 -13 -4 -27 19 -28 30 -2 34 21 6 29 -11 3 -22 2 -25
-1z"/>
<path d="M7206 164 c-11 -8 -16 -14 -10 -14 13 0 39 18 34 24 -3 2 -14 -2 -24
-10z"/>
<path d="M717 163 c-4 -3 -7 -11 -7 -17 0 -6 5 -5 12 2 6 6 9 14 7 17 -3 3 -9
2 -12 -2z"/>
<path d="M5126 161 c-4 -7 -5 -15 -2 -18 9 -9 19 4 14 18 -4 11 -6 11 -12 0z"/>
<path d="M1306 152 c-3 -5 1 -15 9 -22 16 -14 20 -3 6 19 -5 8 -11 9 -15 3z"/>
<path d="M2541 146 c-1 -15 -4 -16 -16 -6 -13 10 -15 9 -15 -11 -1 -13 -7 -35
-15 -49 -14 -25 -14 -25 -8 9 4 25 3 32 -6 27 -6 -4 -9 -12 -6 -17 4 -5 1 -9
-4 -9 -6 0 -11 -11 -11 -23 0 -24 -22 -49 -50 -60 -10 -4 -7 -6 8 -6 12 -1 32
4 45 11 12 6 29 14 37 18 8 4 19 25 25 46 5 21 13 42 18 45 5 4 7 15 4 25 -5
18 -5 18 -6 0z"/>
<path d="M2140 130 c-13 -8 -12 -10 3 -10 9 0 17 5 17 10 0 12 -1 12 -20 0z"/>
<path d="M2740 110 c0 -16 5 -30 10 -30 6 0 10 14 10 30 0 17 -4 30 -10 30 -5
0 -10 -13 -10 -30z"/>
<path d="M7385 120 c3 -5 0 -10 -7 -10 -8 0 -23 -6 -34 -14 -17 -13 -15 -14
28 -13 25 1 41 5 35 9 -13 8 -11 10 18 26 18 10 17 11 -13 12 -20 0 -31 -4
-27 -10z"/>
<path d="M3817 113 c-12 -11 -8 -22 13 -33 18 -9 20 -8 20 15 0 24 -18 34 -33
18z"/>
<path d="M4045 110 c3 -5 8 -10 11 -10 2 0 4 5 4 10 0 6 -5 10 -11 10 -5 0 -7
-4 -4 -10z"/>
<path d="M1930 95 c0 -18 -16 -20 -23 -2 -3 6 -6 -4 -6 -23 l-1 -35 25 29 c13
16 22 33 19 37 -8 13 -14 11 -14 -6z"/>
<path d="M3870 100 c0 -5 7 -10 16 -10 8 0 12 5 9 10 -3 6 -10 10 -16 10 -5 0
-9 -4 -9 -10z"/>
<path d="M7145 100 c-3 -5 1 -10 9 -10 9 0 16 5 16 10 0 6 -4 10 -9 10 -6 0
-13 -4 -16 -10z"/>
<path d="M4790 91 c0 -6 4 -13 10 -16 6 -3 7 1 4 9 -7 18 -14 21 -14 7z"/>
<path d="M2695 81 c-3 -5 -1 -12 5 -16 5 -3 10 1 10 9 0 18 -6 21 -15 7z"/>
<path d="M3915 70 c3 -5 10 -10 16 -10 5 0 9 5 9 10 0 6 -7 10 -16 10 -8 0
-12 -4 -9 -10z"/>
<path d="M4010 60 c0 -5 7 -7 15 -4 8 4 15 8 15 10 0 2 -7 4 -15 4 -8 0 -15
-4 -15 -10z"/>
<path d="M4445 60 c-3 -5 -1 -10 4 -10 6 0 11 5 11 10 0 6 -2 10 -4 10 -3 0
-8 -4 -11 -10z"/>
<path d="M4770 55 c-11 -13 -10 -14 4 -9 9 3 16 10 16 15 0 13 -6 11 -20 -6z"/>
<path d="M6481 61 c-9 -6 -10 -11 -2 -15 6 -4 11 -1 11 6 0 9 3 9 10 -2 6 -9
10 -10 10 -3 0 17 -14 23 -29 14z"/>
<path d="M7120 50 c-6 -11 -17 -20 -25 -20 -8 0 -15 -5 -15 -10 0 -7 7 -7 21
1 16 8 23 8 28 0 5 -8 14 -6 29 7 31 27 27 36 -4 15 -27 -17 -27 -17 -15 5 7
13 8 22 2 22 -6 0 -15 -9 -21 -20z"/>
<path d="M7230 60 c-13 -8 -12 -10 4 -10 15 0 16 -3 6 -15 -11 -13 -10 -14 3
-9 8 3 18 12 21 20 3 8 2 13 -3 9 -5 -3 -11 -1 -13 5 -2 6 -8 6 -18 0z"/>
<path d="M2364 35 c-9 -37 0 -40 13 -5 6 17 7 30 2 30 -5 0 -11 -11 -15 -25z"/>
<path d="M4105 50 c-18 -7 -19 -8 -2 -15 20 -8 47 0 47 15 0 12 -17 12 -45 0z"/>
<path d="M4160 48 c0 -13 20 -19 40 -13 30 10 24 22 -10 21 -16 -1 -30 -4 -30
-8z"/>
<path d="M4667 53 c-4 -3 -7 -11 -7 -17 0 -6 5 -5 12 2 6 6 9 14 7 17 -3 3 -9
2 -12 -2z"/>
<path d="M3820 40 c0 -5 7 -10 16 -10 8 0 12 5 9 10 -3 6 -10 10 -16 10 -5 0
-9 -4 -9 -10z"/>
<path d="M4231 46 c2 -2 14 -9 26 -15 18 -9 22 -9 18 2 -3 7 -15 13 -26 14
-12 1 -20 1 -18 -1z"/>
<path d="M2336 32 c-2 -4 -1 -14 5 -22 7 -12 9 -10 9 8 0 23 -5 28 -14 14z"/>
<path d="M2617 33 c-10 -9 -9 -33 1 -33 4 0 8 9 8 20 0 23 0 22 -9 13z"/>
<path d="M2745 20 c-15 -17 -16 -20 -3 -20 9 0 19 7 22 16 10 25 1 27 -19 4z"/>
<path d="M1835 19 c-10 -15 1 -23 20 -15 9 3 13 10 10 16 -8 13 -22 13 -30 -1z"/>
<path d="M7461 14 c0 -11 3 -14 6 -6 3 7 2 16 -1 19 -3 4 -6 -2 -5 -13z"/>
<path d="M1795 10 c-3 -5 -1 -10 4 -10 6 0 11 5 11 10 0 6 -2 10 -4 10 -3 0
-8 -4 -11 -10z"/>
<path d="M4168 13 c7 -3 16 -2 19 1 4 3 -2 6 -13 5 -11 0 -14 -3 -6 -6z"/>
<path d="M4205 10 c-3 -5 3 -10 15 -10 12 0 18 5 15 10 -3 6 -10 10 -15 10 -5
0 -12 -4 -15 -10z"/>
<path d="M4048 3 c12 -2 30 -2 40 0 9 3 -1 5 -23 4 -22 0 -30 -2 -17 -4z"/>
</g>
</svg>
